<?xml version="1.0" encoding="UTF-8"?>
<svg id="Layer_2" data-name="Layer 2" xmlns="http://www.w3.org/2000/svg" viewBox="0 0 408.34 561.87">
  <defs>
    <style>
      .cls-1 {
        fill: #bcdcc5;
      }

      .cls-2 {
        fill: #fa736d;
      }

      .cls-3 {
        fill: #fca19d;
      }

      .cls-4 {
        fill: #58a76f;
      }

      .cls-5 {
        fill: #f9443c;
      }

      .cls-6 {
        fill: #fdc2a3;
      }

      .cls-7 {
        fill: #f1afbc;
      }

      .cls-8 {
        fill: #fc9d33;
      }

      .cls-9 {
        fill: #79b98c;
      }

      .cls-10 {
        fill: #e87a90;
      }

      .cls-11 {
        fill: #fee7cc;
      }

      .cls-12 {
        fill: #9bcaa9;
      }

      .cls-13 {
        fill: #fb9966;
      }

      .cls-14 {
        fill: #fdd6c2;
      }

      .cls-15 {
        fill: #f6cad3;
      }

      .cls-16 {
        fill: #ed95a6;
      }

      .cls-17 {
        fill: #fdd0ce;
      }

      .cls-18 {
        fill: #fdce99;
      }

      .cls-19 {
        fill: #f7150b;
      }

      .cls-20 {
        fill: #deede2;
      }

      .cls-21 {
        fill: #fae4e9;
      }

      .cls-22 {
        fill: #fdb666;
      }

      .cls-23 {
        fill: #fcad85;
      }

      .cls-24 {
        fill: #feebe0;
      }

      .cls-25 {
        fill: #fb8500;
      }
    </style>
  </defs>
  <g id="Color_Palette" data-name="Color Palette">
    <g>
      <circle class="cls-13" cx="157.84" cy="38.5" r="38.5"/>
      <circle class="cls-23" cx="210.84" cy="38.5" r="38.5"/>
      <circle class="cls-6" cx="263.84" cy="38.5" r="38.5"/>
      <circle class="cls-14" cx="316.84" cy="38.5" r="38.5"/>
      <circle class="cls-24" cx="369.84" cy="38.5" r="38.5"/>
    </g>
    <g>
      <path d="M0,42.09l.27-1.61h11.99l-.27,1.61H0ZM.95,36.55l.27-1.63h11.97l-.25,1.63H.95ZM1.67,46.5l2.62-16.01h1.62l-2.62,16.01h-1.62ZM7.27,46.5l2.64-16.01h1.62l-2.62,16.01h-1.64Z"/>
      <path d="M15.5,46.5v-16.01h9.68v1.8h-7.64v5.48h6.91v1.8h-6.91v6.92h-2.04Z"/>
      <path d="M28.49,46.5v-16.01h5.67c1.12,0,2.04.19,2.77.57.73.38,1.27.9,1.62,1.54.35.64.53,1.35.53,2.13,0,.69-.12,1.25-.37,1.7-.24.45-.56.8-.96,1.07s-.83.46-1.29.59v.15c.5.03,1,.2,1.5.52.5.32.91.76,1.25,1.34s.5,1.29.5,2.13-.18,1.53-.55,2.17c-.37.64-.95,1.16-1.73,1.53-.79.38-1.81.56-3.07.56h-5.85ZM30.53,37.52h3.52c.57,0,1.09-.11,1.56-.34.47-.23.83-.54,1.11-.96.27-.41.41-.89.41-1.44,0-.69-.24-1.28-.73-1.76s-1.24-.72-2.28-.72h-3.59v5.22ZM30.53,44.7h3.76c1.25,0,2.13-.24,2.66-.72s.79-1.07.79-1.76c0-.54-.14-1.03-.41-1.48-.27-.45-.66-.81-1.15-1.08-.5-.27-1.09-.41-1.78-.41h-3.87v5.46Z"/>
      <path d="M47.43,46.72c-.91,0-1.72-.18-2.43-.54s-1.29-.86-1.74-1.5-.74-1.39-.87-2.25h2.02c.16.71.5,1.3,1,1.77.5.47,1.17.71,2.02.71s1.52-.24,2.11-.72c.59-.48,1.04-1.17,1.36-2.08.32-.91.48-2.01.48-3.3h-.13c-.29.44-.63.81-1.03,1.13-.4.32-.85.57-1.34.74-.49.17-1.02.26-1.57.26-.92,0-1.76-.23-2.52-.68-.77-.45-1.38-1.08-1.83-1.88-.46-.8-.68-1.71-.68-2.73s.23-1.9.68-2.72c.45-.82,1.08-1.47,1.9-1.96.81-.48,1.77-.71,2.86-.69.66,0,1.32.13,1.98.38.66.25,1.26.65,1.8,1.22.54.57.98,1.34,1.31,2.31.33.97.49,2.2.49,3.67s-.13,2.67-.4,3.77-.66,2.02-1.17,2.78c-.51.76-1.12,1.33-1.85,1.72-.72.39-1.54.59-2.44.59ZM47.6,39.17c.49,0,.94-.1,1.36-.29.42-.19.79-.46,1.11-.79.31-.33.56-.71.74-1.14.18-.43.27-.88.27-1.35,0-.62-.15-1.19-.45-1.72-.3-.53-.7-.97-1.21-1.3-.51-.33-1.1-.5-1.76-.5s-1.22.16-1.73.48c-.51.32-.92.75-1.22,1.29-.3.54-.45,1.14-.45,1.8s.15,1.24.44,1.78c.29.53.69.96,1.19,1.27.5.32,1.07.47,1.72.47Z"/>
      <path d="M61.07,46.72c-.91,0-1.72-.18-2.43-.54s-1.29-.86-1.74-1.5-.74-1.39-.87-2.25h2.02c.16.71.5,1.3,1,1.77.5.47,1.17.71,2.02.71s1.52-.24,2.11-.72c.59-.48,1.04-1.17,1.36-2.08.32-.91.48-2.01.48-3.3h-.13c-.29.44-.63.81-1.03,1.13-.4.32-.85.57-1.34.74-.49.17-1.02.26-1.57.26-.92,0-1.76-.23-2.52-.68-.77-.45-1.38-1.08-1.83-1.88-.46-.8-.68-1.71-.68-2.73s.23-1.9.68-2.72c.45-.82,1.08-1.47,1.9-1.96.81-.48,1.77-.71,2.86-.69.66,0,1.32.13,1.98.38.66.25,1.26.65,1.8,1.22.54.57.98,1.34,1.31,2.31.33.97.49,2.2.49,3.67s-.13,2.67-.4,3.77-.66,2.02-1.17,2.78c-.51.76-1.12,1.33-1.85,1.72-.72.39-1.54.59-2.44.59ZM61.24,39.17c.49,0,.94-.1,1.36-.29.42-.19.79-.46,1.11-.79.31-.33.56-.71.74-1.14.18-.43.27-.88.27-1.35,0-.62-.15-1.19-.45-1.72-.3-.53-.7-.97-1.21-1.3-.51-.33-1.1-.5-1.76-.5s-1.22.16-1.73.48c-.51.32-.92.75-1.22,1.29-.3.54-.45,1.14-.45,1.8s.15,1.24.44,1.78c.29.53.69.96,1.19,1.27.5.32,1.07.47,1.72.47Z"/>
      <path d="M75.17,46.72c-.67,0-1.33-.12-2-.37s-1.27-.65-1.82-1.22-.99-1.35-1.32-2.33c-.33-.98-.49-2.21-.49-3.68s.13-2.66.4-3.75c.27-1.09.66-2.02,1.17-2.77.51-.76,1.13-1.33,1.85-1.72.72-.39,1.54-.59,2.45-.59s1.7.18,2.41.54,1.29.86,1.74,1.49.74,1.38.87,2.21h-2c-.18-.69-.52-1.27-1.02-1.74-.5-.47-1.17-.7-2-.7s-1.52.24-2.11.72-1.04,1.17-1.36,2.08c-.32.91-.47,2-.47,3.28h.13c.29-.44.63-.83,1.03-1.14.4-.32.85-.56,1.34-.73.49-.17,1.02-.25,1.57-.25.92,0,1.75.23,2.51.68.76.45,1.37,1.08,1.82,1.87.45.8.68,1.71.68,2.75s-.22,1.9-.67,2.71c-.44.81-1.07,1.46-1.88,1.95-.81.48-1.76.72-2.85.72ZM75.17,44.92c.64,0,1.22-.16,1.74-.48s.92-.75,1.22-1.29c.3-.54.45-1.14.45-1.81s-.15-1.24-.44-1.78c-.29-.53-.69-.96-1.2-1.27-.51-.32-1.08-.47-1.73-.47-.49,0-.94.09-1.36.28-.42.19-.79.45-1.1.79-.32.33-.56.71-.74,1.14-.18.43-.26.87-.26,1.34,0,.63.15,1.22.44,1.76.29.54.7.98,1.21,1.31.52.33,1.1.5,1.75.5Z"/>
      <path d="M88.82,46.72c-.67,0-1.33-.12-2-.37s-1.27-.65-1.82-1.22-.99-1.35-1.32-2.33c-.33-.98-.49-2.21-.49-3.68s.13-2.66.4-3.75c.27-1.09.66-2.02,1.17-2.77.51-.76,1.13-1.33,1.85-1.72.72-.39,1.54-.59,2.45-.59s1.7.18,2.41.54,1.29.86,1.74,1.49.74,1.38.87,2.21h-2c-.18-.69-.52-1.27-1.02-1.74-.5-.47-1.17-.7-2-.7s-1.52.24-2.11.72-1.04,1.17-1.36,2.08c-.32.91-.47,2-.47,3.28h.13c.29-.44.63-.83,1.03-1.14.4-.32.85-.56,1.34-.73.49-.17,1.02-.25,1.57-.25.92,0,1.75.23,2.51.68.76.45,1.37,1.08,1.82,1.87.45.8.68,1.71.68,2.75s-.22,1.9-.67,2.71c-.44.81-1.07,1.46-1.88,1.95-.81.48-1.76.72-2.85.72ZM88.82,44.92c.64,0,1.22-.16,1.74-.48s.92-.75,1.22-1.29c.3-.54.45-1.14.45-1.81s-.15-1.24-.44-1.78c-.29-.53-.69-.96-1.2-1.27-.51-.32-1.08-.47-1.73-.47-.49,0-.94.09-1.36.28-.42.19-.79.45-1.1.79-.32.33-.56.71-.74,1.14-.18.43-.26.87-.26,1.34,0,.63.15,1.22.44,1.76.29.54.7.98,1.21,1.31.52.33,1.1.5,1.75.5Z"/>
    </g>
    <circle class="cls-10" cx="157.84" cy="159.72" r="38.5"/>
    <circle class="cls-16" cx="210.84" cy="159.72" r="38.5"/>
    <circle class="cls-7" cx="263.84" cy="159.72" r="38.5"/>
    <circle class="cls-15" cx="316.84" cy="159.72" r="38.5"/>
    <circle class="cls-21" cx="369.84" cy="159.72" r="38.5"/>
    <g>
      <path d="M0,163.31l.27-1.61h11.99l-.27,1.61H0ZM.95,157.76l.27-1.63h11.97l-.25,1.63H.95ZM1.67,167.72l2.62-16.01h1.62l-2.62,16.01h-1.62ZM7.27,167.72l2.64-16.01h1.62l-2.62,16.01h-1.64Z"/>
      <path d="M15.5,167.72v-16.01h9.75v1.8h-7.71v5.22h7.19v1.8h-7.19v5.37h7.81v1.8h-9.85Z"/>
      <path d="M33.59,167.94c-1.08,0-2.04-.19-2.86-.57-.83-.38-1.47-.91-1.93-1.58s-.69-1.44-.69-2.31c0-.67.14-1.3.41-1.88.27-.58.64-1.06,1.12-1.44s1.01-.63,1.6-.74v-.09c-.78-.2-1.4-.63-1.86-1.3-.46-.67-.69-1.42-.69-2.27s.21-1.54.63-2.19c.42-.64,1-1.15,1.74-1.52.74-.37,1.58-.55,2.54-.55s1.78.18,2.51.55c.74.37,1.32.87,1.75,1.52.43.64.64,1.37.64,2.19s-.23,1.6-.69,2.27-1.07,1.1-1.83,1.3v.09c.58.11,1.11.35,1.58.74s.85.87,1.13,1.44c.28.58.42,1.2.42,1.88,0,.87-.23,1.64-.7,2.31-.47.67-1.12,1.2-1.94,1.58-.83.38-1.78.57-2.85.57ZM33.59,166.16c.71,0,1.32-.12,1.84-.35.52-.23.91-.56,1.2-.98.28-.42.42-.91.42-1.48,0-.59-.15-1.12-.45-1.57-.3-.45-.71-.81-1.24-1.07-.52-.26-1.11-.39-1.77-.39s-1.27.13-1.79.39c-.52.26-.93.62-1.24,1.07-.3.46-.45.98-.45,1.57s.14,1.06.42,1.48c.28.42.68.75,1.2.98.52.23,1.14.35,1.86.35ZM33.59,158.61c.57,0,1.07-.11,1.5-.34.44-.23.78-.54,1.04-.95.25-.41.38-.88.38-1.42s-.12-1-.37-1.4c-.24-.39-.59-.7-1.03-.92-.44-.22-.95-.33-1.53-.33s-1.1.11-1.54.33c-.44.22-.78.52-1.03.92-.24.39-.37.86-.37,1.4s.12,1.01.37,1.42.59.72,1.04.95c.44.22.95.34,1.53.34Z"/>
      <path d="M42.55,167.72l7.11-14.08v-.13h-8.21v-1.79h10.34v1.9l-7.1,14.1h-2.15Z"/>
      <path d="M51.04,167.72l5.81-16.01h2.36l5.89,16.01h-2.15l-3.39-9.5c-.21-.59-.45-1.32-.73-2.2-.28-.88-.61-2-1-3.36h.39c-.39,1.38-.72,2.51-1,3.4-.28.89-.52,1.61-.7,2.15l-3.3,9.5h-2.17ZM53.96,163.25v-1.78h8.22v1.78h-8.22Z"/>
      <path d="M72.13,167.94c-.91,0-1.72-.18-2.43-.54s-1.29-.86-1.74-1.5-.74-1.39-.87-2.25h2.02c.16.71.5,1.3,1,1.77.5.47,1.17.71,2.02.71s1.52-.24,2.11-.72c.59-.48,1.04-1.17,1.36-2.08.32-.91.48-2.01.48-3.3h-.13c-.29.44-.63.81-1.03,1.13-.4.32-.85.57-1.34.74-.49.17-1.02.26-1.57.26-.92,0-1.76-.23-2.52-.68-.77-.45-1.38-1.08-1.83-1.88-.46-.8-.68-1.71-.68-2.73s.23-1.9.68-2.72c.45-.82,1.08-1.47,1.9-1.96.81-.48,1.77-.71,2.86-.69.66,0,1.32.13,1.98.38.66.25,1.26.65,1.8,1.22.54.57.98,1.34,1.31,2.31.33.97.49,2.2.49,3.67s-.13,2.67-.4,3.77-.66,2.02-1.17,2.78c-.51.76-1.12,1.33-1.85,1.72-.72.39-1.54.59-2.44.59ZM72.31,160.38c.49,0,.94-.1,1.36-.29.42-.19.79-.46,1.11-.79.31-.33.56-.71.74-1.14.18-.43.27-.88.27-1.35,0-.62-.15-1.19-.45-1.72-.3-.53-.7-.97-1.21-1.3-.51-.33-1.1-.5-1.76-.5s-1.22.16-1.73.48c-.51.32-.92.75-1.22,1.29-.3.54-.45,1.14-.45,1.8s.15,1.24.44,1.78c.29.53.69.96,1.19,1.27.5.32,1.07.47,1.72.47Z"/>
      <path d="M86.24,167.94c-1.19,0-2.2-.32-3.04-.97s-1.48-1.58-1.92-2.8c-.44-1.22-.67-2.7-.67-4.44s.22-3.21.67-4.44c.45-1.22,1.09-2.16,1.93-2.81s1.85-.98,3.03-.98,2.19.33,3.03.98c.84.65,1.48,1.59,1.93,2.81.44,1.22.67,2.7.67,4.44s-.22,3.21-.66,4.44-1.08,2.16-1.92,2.8-1.85.97-3.05.97ZM86.24,166.15c.78,0,1.44-.25,1.99-.76.54-.51.96-1.24,1.25-2.2.29-.96.43-2.11.43-3.46s-.14-2.52-.43-3.49c-.29-.96-.7-1.7-1.25-2.21-.54-.51-1.21-.76-1.99-.76s-1.44.26-1.99.77c-.54.51-.96,1.25-1.25,2.21-.29.96-.43,2.12-.43,3.48s.14,2.51.43,3.46c.29.96.7,1.69,1.25,2.2.54.51,1.21.76,1.99.76Z"/>
    </g>
    <circle class="cls-4" cx="157.84" cy="280.93" r="38.5"/>
    <circle class="cls-9" cx="210.84" cy="280.93" r="38.5"/>
    <circle class="cls-12" cx="263.84" cy="280.93" r="38.5"/>
    <circle class="cls-1" cx="316.84" cy="280.93" r="38.5"/>
    <circle class="cls-20" cx="369.84" cy="280.93" r="38.5"/>
    <g>
      <path d="M0,284.52l.27-1.61h11.99l-.27,1.61H0ZM.95,278.98l.27-1.63h11.97l-.25,1.63H.95ZM1.67,288.94l2.62-16.01h1.62l-2.62,16.01h-1.62ZM7.27,288.94l2.64-16.01h1.62l-2.62,16.01h-1.64Z"/>
      <path d="M19.97,289.15c-.94,0-1.78-.19-2.52-.55-.75-.37-1.34-.88-1.78-1.52-.44-.64-.68-1.37-.72-2.19h1.98c.04.47.2.89.48,1.27.28.37.64.66,1.09.88.45.21.94.32,1.48.32.64,0,1.22-.15,1.72-.45s.9-.71,1.19-1.25c.29-.53.43-1.13.43-1.8s-.15-1.3-.45-1.85c-.3-.54-.71-.97-1.23-1.28-.52-.31-1.12-.47-1.79-.47-.49,0-1,.08-1.5.24-.51.16-.92.36-1.24.6l-1.91-.24.95-7.93h8.42v1.79h-6.7l-.55,4.67h.09c.33-.27.74-.5,1.25-.67.5-.18,1.03-.26,1.58-.26.73,0,1.41.13,2.02.4.62.26,1.16.64,1.62,1.12.46.48.81,1.05,1.07,1.7.25.65.38,1.37.38,2.14,0,1.02-.23,1.94-.69,2.74-.46.8-1.09,1.44-1.9,1.9-.8.46-1.72.69-2.75.69Z"/>
      <path d="M33.42,289.15c-1.08,0-2.04-.19-2.86-.57-.83-.38-1.47-.91-1.93-1.59-.46-.67-.69-1.44-.69-2.31,0-.67.14-1.3.41-1.88.27-.58.64-1.06,1.12-1.45s1.01-.63,1.6-.74v-.09c-.78-.2-1.4-.63-1.86-1.3-.46-.67-.69-1.42-.69-2.27s.21-1.54.63-2.19c.42-.64,1-1.15,1.74-1.52.74-.37,1.58-.55,2.54-.55s1.78.18,2.51.55c.74.37,1.32.87,1.75,1.52.43.64.64,1.37.64,2.19s-.23,1.6-.69,2.27-1.07,1.1-1.83,1.3v.09c.58.11,1.11.35,1.58.74s.85.87,1.13,1.45.42,1.2.42,1.88c0,.87-.23,1.64-.7,2.31-.47.67-1.12,1.2-1.94,1.59-.83.38-1.78.57-2.85.57ZM33.42,287.38c.71,0,1.32-.12,1.84-.35.52-.23.91-.56,1.2-.98.28-.42.42-.91.42-1.48,0-.6-.15-1.12-.45-1.57s-.71-.81-1.24-1.07c-.52-.26-1.11-.39-1.77-.39s-1.27.13-1.79.39c-.52.26-.93.62-1.24,1.07s-.45.98-.45,1.57c0,.56.14,1.06.42,1.48.28.42.68.74,1.2.98.52.23,1.14.35,1.86.35ZM33.42,279.83c.57,0,1.07-.11,1.5-.34.44-.23.78-.54,1.04-.95.25-.41.38-.88.38-1.42s-.12-1-.37-1.4c-.24-.39-.59-.7-1.03-.92-.44-.22-.95-.33-1.53-.33s-1.1.11-1.54.33c-.44.22-.78.52-1.03.92-.24.39-.37.86-.37,1.4s.12,1.01.37,1.42.59.72,1.04.95c.44.22.95.34,1.53.34Z"/>
      <path d="M40.79,288.94l5.81-16.01h2.36l5.89,16.01h-2.15l-3.39-9.5c-.21-.59-.45-1.32-.73-2.2-.28-.88-.61-2-1-3.36h.39c-.39,1.38-.72,2.51-1,3.4-.28.89-.52,1.61-.7,2.15l-3.3,9.5h-2.17ZM43.71,284.47v-1.78h8.22v1.78h-8.22Z"/>
      <path d="M57.56,288.94l7.11-14.08v-.13h-8.21v-1.79h10.34v1.9l-7.1,14.11h-2.15Z"/>
      <path d="M74.45,289.15c-.67,0-1.33-.12-2-.37-.67-.24-1.27-.65-1.82-1.22-.55-.57-.99-1.35-1.32-2.33-.33-.98-.49-2.21-.49-3.68s.13-2.66.4-3.75c.27-1.09.66-2.02,1.17-2.77.51-.76,1.13-1.33,1.85-1.72.72-.39,1.54-.59,2.45-.59s1.7.18,2.41.54c.71.36,1.29.86,1.74,1.49.45.64.74,1.38.87,2.21h-2c-.18-.69-.52-1.27-1.02-1.74-.5-.46-1.17-.7-2-.7s-1.52.24-2.11.72c-.59.48-1.04,1.17-1.36,2.08-.32.9-.47,2-.47,3.28h.13c.29-.45.63-.83,1.03-1.14.4-.32.85-.56,1.34-.73s1.02-.25,1.57-.25c.92,0,1.75.22,2.51.68.76.45,1.37,1.08,1.82,1.88.45.8.68,1.71.68,2.74s-.22,1.9-.67,2.71c-.44.81-1.07,1.46-1.88,1.95-.81.48-1.76.72-2.85.72ZM74.45,287.36c.64,0,1.22-.16,1.74-.48s.92-.75,1.22-1.29.45-1.14.45-1.81-.15-1.24-.44-1.78-.69-.96-1.2-1.27c-.51-.31-1.08-.47-1.73-.47-.49,0-.94.1-1.36.29s-.79.45-1.1.79c-.32.33-.56.71-.74,1.14-.18.43-.26.87-.26,1.34,0,.63.15,1.22.44,1.76.29.54.7.98,1.21,1.31.52.33,1.1.5,1.75.5Z"/>
      <path d="M83.09,288.94v-16.01h9.68v1.8h-7.64v5.48h6.91v1.8h-6.91v6.92h-2.04Z"/>
    </g>
    <circle class="cls-25" cx="157.84" cy="402.15" r="38.5"/>
    <circle class="cls-8" cx="210.84" cy="402.15" r="38.5"/>
    <circle class="cls-22" cx="263.84" cy="402.15" r="38.5"/>
    <circle class="cls-18" cx="316.84" cy="402.15" r="38.5"/>
    <circle class="cls-11" cx="369.84" cy="402.15" r="38.5"/>
    <g>
      <path d="M0,405.74l.27-1.61h11.99l-.27,1.61H0ZM.95,400.2l.27-1.63h11.97l-.25,1.63H.95ZM1.67,410.15l2.62-16.01h1.62l-2.62,16.01h-1.62ZM7.27,410.15l2.64-16.01h1.62l-2.62,16.01h-1.64Z"/>
      <path d="M15.5,410.15v-16.01h9.68v1.8h-7.64v5.48h6.91v1.8h-6.91v6.92h-2.04Z"/>
      <path d="M28.49,410.15v-16.01h5.67c1.12,0,2.04.19,2.77.57.73.38,1.27.9,1.62,1.54.35.64.53,1.35.53,2.13,0,.69-.12,1.25-.37,1.7-.24.45-.56.8-.96,1.07s-.83.46-1.29.59v.15c.5.03,1,.2,1.5.52.5.32.91.76,1.25,1.34s.5,1.29.5,2.13-.18,1.53-.55,2.17c-.37.64-.95,1.16-1.73,1.53-.79.38-1.81.56-3.07.56h-5.85ZM30.53,401.17h3.52c.57,0,1.09-.11,1.56-.34.47-.23.83-.54,1.11-.96.27-.41.41-.89.41-1.44,0-.69-.24-1.28-.73-1.76s-1.24-.72-2.28-.72h-3.59v5.22ZM30.53,408.35h3.76c1.25,0,2.13-.24,2.66-.72s.79-1.07.79-1.76c0-.54-.14-1.03-.41-1.48-.27-.45-.66-.81-1.15-1.08-.5-.27-1.09-.41-1.78-.41h-3.87v5.46Z"/>
      <path d="M47.75,410.37c-1.08,0-2.04-.19-2.86-.57-.83-.38-1.47-.91-1.93-1.58s-.69-1.44-.69-2.31c0-.67.14-1.3.41-1.88.27-.58.64-1.06,1.12-1.44s1.01-.63,1.6-.74v-.09c-.78-.2-1.4-.63-1.86-1.3-.46-.67-.69-1.42-.69-2.27s.21-1.54.63-2.19c.42-.64,1-1.15,1.74-1.52.74-.37,1.58-.55,2.54-.55s1.78.18,2.51.55c.74.37,1.32.87,1.75,1.52.43.64.64,1.37.64,2.19s-.23,1.6-.69,2.27-1.07,1.1-1.83,1.3v.09c.58.11,1.11.35,1.58.74s.85.87,1.13,1.44c.28.58.42,1.2.42,1.88,0,.87-.23,1.64-.7,2.31-.47.67-1.12,1.2-1.94,1.58-.83.38-1.78.57-2.85.57ZM47.75,408.6c.71,0,1.32-.12,1.84-.35.52-.23.91-.56,1.2-.98.28-.42.42-.91.42-1.48,0-.59-.15-1.12-.45-1.57-.3-.45-.71-.81-1.24-1.07-.52-.26-1.11-.39-1.77-.39s-1.27.13-1.79.39c-.52.26-.93.62-1.24,1.07-.3.46-.45.98-.45,1.57s.14,1.06.42,1.48c.28.42.68.75,1.2.98.52.23,1.14.35,1.86.35ZM47.75,401.05c.57,0,1.07-.11,1.5-.34.44-.23.78-.54,1.04-.95.25-.41.38-.88.38-1.42s-.12-1-.37-1.4c-.24-.39-.59-.7-1.03-.92-.44-.22-.95-.33-1.53-.33s-1.1.11-1.54.33c-.44.22-.78.52-1.03.92-.24.39-.37.86-.37,1.4s.12,1.01.37,1.42.59.72,1.04.95c.44.22.95.34,1.53.34Z"/>
      <path d="M60.96,410.37c-.94,0-1.78-.18-2.52-.55-.75-.37-1.34-.87-1.78-1.52-.44-.64-.68-1.37-.72-2.19h1.98c.04.47.2.9.48,1.27s.64.66,1.09.88c.45.21.94.32,1.48.32.64,0,1.22-.15,1.72-.45s.9-.72,1.19-1.25c.29-.53.43-1.13.43-1.8s-.15-1.3-.45-1.85-.71-.97-1.23-1.28c-.52-.31-1.12-.47-1.79-.47-.49,0-1,.08-1.5.24-.51.16-.92.36-1.24.6l-1.91-.24.95-7.93h8.42v1.79h-6.7l-.55,4.67h.09c.33-.27.74-.5,1.25-.67.5-.17,1.03-.26,1.58-.26.73,0,1.41.13,2.02.4.62.26,1.16.64,1.62,1.12.46.48.81,1.05,1.07,1.7.25.65.38,1.36.38,2.14,0,1.02-.23,1.94-.69,2.74s-1.09,1.43-1.9,1.9c-.8.46-1.72.69-2.75.69Z"/>
      <path d="M74.55,410.37c-1.19,0-2.2-.32-3.04-.97s-1.48-1.58-1.92-2.8c-.44-1.22-.67-2.7-.67-4.44s.22-3.21.67-4.44c.45-1.22,1.09-2.16,1.93-2.81s1.85-.98,3.03-.98,2.19.33,3.03.98c.84.65,1.48,1.59,1.93,2.81.44,1.22.67,2.7.67,4.44s-.22,3.21-.66,4.44-1.08,2.16-1.92,2.8-1.85.97-3.05.97ZM74.55,408.59c.78,0,1.44-.25,1.99-.76.54-.51.96-1.24,1.25-2.2.29-.96.43-2.11.43-3.46s-.14-2.52-.43-3.49c-.29-.96-.7-1.7-1.25-2.21-.54-.51-1.21-.76-1.99-.76s-1.44.26-1.99.77c-.54.51-.96,1.25-1.25,2.21-.29.96-.43,2.12-.43,3.48s.14,2.51.43,3.46c.29.96.7,1.69,1.25,2.2.54.51,1.21.76,1.99.76Z"/>
      <path d="M88.43,410.37c-1.19,0-2.2-.32-3.04-.97s-1.48-1.58-1.92-2.8c-.44-1.22-.67-2.7-.67-4.44s.22-3.21.67-4.44c.45-1.22,1.09-2.16,1.93-2.81s1.85-.98,3.03-.98,2.19.33,3.03.98c.84.65,1.48,1.59,1.93,2.81.44,1.22.67,2.7.67,4.44s-.22,3.21-.66,4.44-1.08,2.16-1.92,2.8-1.85.97-3.05.97ZM88.43,408.59c.78,0,1.44-.25,1.99-.76.54-.51.96-1.24,1.25-2.2.29-.96.43-2.11.43-3.46s-.14-2.52-.43-3.49c-.29-.96-.7-1.7-1.25-2.21-.54-.51-1.21-.76-1.99-.76s-1.44.26-1.99.77c-.54.51-.96,1.25-1.25,2.21-.29.96-.43,2.12-.43,3.48s.14,2.51.43,3.46c.29.96.7,1.69,1.25,2.2.54.51,1.21.76,1.99.76Z"/>
    </g>
    <circle class="cls-19" cx="157.84" cy="523.37" r="38.5"/>
    <circle class="cls-5" cx="210.84" cy="523.37" r="38.5"/>
    <circle class="cls-2" cx="263.84" cy="523.37" r="38.5"/>
    <circle class="cls-3" cx="316.84" cy="523.37" r="38.5"/>
    <circle class="cls-17" cx="369.84" cy="523.37" r="38.5"/>
    <g>
      <path d="M0,526.96l.27-1.61h11.99l-.27,1.61H0ZM.95,521.41l.27-1.63h11.97l-.25,1.63H.95ZM1.67,531.37l2.62-16.01h1.62l-2.62,16.01h-1.62ZM7.27,531.37l2.64-16.01h1.62l-2.62,16.01h-1.64Z"/>
      <path d="M15.5,531.37v-16.01h9.68v1.8h-7.64v5.48h6.91v1.8h-6.91v6.92h-2.04Z"/>
      <path d="M28.7,531.37l7.11-14.08v-.13h-8.21v-1.79h10.34v1.9l-7.1,14.1h-2.15Z"/>
      <path d="M46.02,515.37v16.01h-2.01v-14.12h-.11l-3.87,2.87v-2.19l3.48-2.57h2.5Z"/>
      <path d="M54.36,531.59c-.94,0-1.78-.18-2.52-.55-.75-.37-1.34-.87-1.78-1.52-.44-.64-.68-1.37-.72-2.19h1.98c.04.47.2.9.48,1.27s.64.66,1.09.88c.45.21.94.32,1.48.32.64,0,1.22-.15,1.72-.45s.9-.72,1.19-1.25c.29-.53.43-1.13.43-1.8s-.15-1.3-.45-1.85-.71-.97-1.23-1.28c-.52-.31-1.12-.47-1.79-.47-.49,0-1,.08-1.5.24-.51.16-.92.36-1.24.6l-1.91-.24.95-7.93h8.42v1.79h-6.7l-.55,4.67h.09c.33-.27.74-.5,1.25-.67.5-.17,1.03-.26,1.58-.26.73,0,1.41.13,2.02.4.62.26,1.16.64,1.62,1.12.46.48.81,1.05,1.07,1.7.25.65.38,1.36.38,2.14,0,1.02-.23,1.94-.69,2.74s-1.09,1.43-1.9,1.9c-.8.46-1.72.69-2.75.69Z"/>
      <path d="M67.94,531.59c-1.19,0-2.2-.32-3.04-.97s-1.48-1.58-1.92-2.8c-.44-1.22-.67-2.7-.67-4.44s.22-3.21.67-4.44c.45-1.22,1.09-2.16,1.93-2.81s1.85-.98,3.03-.98,2.19.33,3.03.98c.84.65,1.48,1.59,1.93,2.81.44,1.22.67,2.7.67,4.44s-.22,3.21-.66,4.44-1.08,2.16-1.92,2.8-1.85.97-3.05.97ZM67.94,529.8c.78,0,1.44-.25,1.99-.76.54-.51.96-1.24,1.25-2.2.29-.96.43-2.11.43-3.46s-.14-2.52-.43-3.49c-.29-.96-.7-1.7-1.25-2.21-.54-.51-1.21-.76-1.99-.76s-1.44.26-1.99.77c-.54.51-.96,1.25-1.25,2.21-.29.96-.43,2.12-.43,3.48s.14,2.51.43,3.46c.29.96.7,1.69,1.25,2.2.54.51,1.21.76,1.99.76Z"/>
      <path d="M76.82,531.37v-16.01h5.67c1.12,0,2.04.19,2.77.57.73.38,1.27.9,1.62,1.54.35.64.53,1.35.53,2.13,0,.69-.12,1.25-.37,1.7-.24.45-.56.8-.96,1.07s-.83.46-1.29.59v.15c.5.03,1,.2,1.5.52.5.32.91.76,1.25,1.34s.5,1.29.5,2.13-.18,1.53-.55,2.17c-.37.64-.95,1.16-1.73,1.53-.79.38-1.81.56-3.07.56h-5.85ZM78.86,522.39h3.52c.57,0,1.09-.11,1.56-.34.47-.23.83-.54,1.11-.96.27-.41.41-.89.41-1.44,0-.69-.24-1.28-.73-1.76s-1.24-.72-2.28-.72h-3.59v5.22ZM78.86,529.57h3.76c1.25,0,2.13-.24,2.66-.72s.79-1.07.79-1.76c0-.54-.14-1.03-.41-1.48-.27-.45-.66-.81-1.15-1.08-.5-.27-1.09-.41-1.78-.41h-3.87v5.46Z"/>
    </g>
  </g>
</svg>