<?xml version="1.0" encoding="UTF-8"?>
<svg id="Layer_2" data-name="Layer 2" xmlns="http://www.w3.org/2000/svg" viewBox="0 0 578.19 435.91">
  <defs>
    <style>
      .cls-1 {
        fill: #e51c4c;
      }
    </style>
  </defs>
  <g id="Color_Palette" data-name="Color Palette">
    <g>
      <g>
        <g>
          <path class="cls-1" d="M288.74,162.23c-2.17,0-4.17-.4-6.01-1.19-1.83-.79-3.43-1.9-4.8-3.32-1.36-1.42-2.42-3.09-3.17-5.02-.75-1.92-1.12-4.03-1.12-6.31s.37-4.39,1.12-6.31c.75-1.92,1.8-3.59,3.17-5.02,1.36-1.42,2.96-2.53,4.8-3.32,1.83-.79,3.83-1.19,6.01-1.19s4.17.4,6.01,1.19c1.83.79,3.43,1.91,4.8,3.34,1.36,1.44,2.42,3.12,3.17,5.04.75,1.92,1.12,4.01,1.12,6.27s-.37,4.35-1.12,6.27c-.75,1.92-1.8,3.6-3.17,5.04s-2.96,2.55-4.8,3.34c-1.83.79-3.84,1.19-6.01,1.19ZM288.74,157.61c1.5,0,2.87-.28,4.11-.84,1.25-.56,2.33-1.34,3.23-2.35.91-1.01,1.62-2.2,2.13-3.56.51-1.36.77-2.85.77-4.47s-.26-3.1-.77-4.47c-.51-1.36-1.22-2.55-2.13-3.56-.91-1.01-1.99-1.8-3.23-2.35-1.25-.56-2.62-.84-4.11-.84s-2.87.28-4.11.84c-1.25.56-2.33,1.34-3.26,2.33-.92,1-1.64,2.18-2.13,3.54-.5,1.36-.75,2.87-.75,4.51s.25,3.11.75,4.49c.5,1.38,1.21,2.57,2.13,3.56s2.01,1.78,3.26,2.33c1.25.56,2.62.84,4.11.84Z"/>
          <path class="cls-1" d="M309.55,161.79v-23.1h4.58v7.26l-.44-1.76c.32-1.11.87-2.13,1.65-3.04.78-.91,1.67-1.63,2.68-2.16,1.01-.53,2.06-.79,3.15-.79.5,0,.97.04,1.43.13.45.09.81.19,1.08.31l-1.19,4.93c-.35-.15-.74-.27-1.17-.37-.43-.1-.84-.15-1.25-.15-.79,0-1.55.15-2.27.46-.72.31-1.35.73-1.89,1.28s-.98,1.17-1.3,1.89c-.32.72-.48,1.5-.48,2.35v12.76h-4.58Z"/>
          <path class="cls-1" d="M336.92,162.23c-2.14,0-4.06-.53-5.74-1.58s-3.02-2.49-4-4.31c-.98-1.82-1.47-3.86-1.47-6.12s.49-4.3,1.47-6.12c.98-1.82,2.32-3.26,4-4.31,1.69-1.06,3.6-1.58,5.74-1.58s3.92.42,5.61,1.25c1.69.84,2.97,1.97,3.85,3.41l-2.51,3.08c-.47-.68-1.07-1.29-1.8-1.85-.73-.56-1.51-1-2.33-1.32-.82-.32-1.61-.48-2.38-.48-1.41,0-2.66.34-3.76,1.03-1.1.69-1.97,1.64-2.62,2.84-.65,1.2-.97,2.55-.97,4.05s.34,2.84,1.01,4.03c.67,1.19,1.57,2.13,2.68,2.84,1.11.71,2.35,1.06,3.7,1.06.79,0,1.56-.13,2.31-.4s1.47-.66,2.18-1.19c.7-.53,1.36-1.17,1.98-1.94l2.51,3.08c-.94,1.32-2.28,2.4-4.03,3.26-1.75.85-3.56,1.28-5.43,1.28Z"/>
          <path class="cls-1" d="M351.44,161.79v-32.56h4.53v14.21l-.79.53c.29-1.03.87-1.97,1.72-2.84s1.86-1.57,3.04-2.11c1.17-.54,2.38-.81,3.61-.81,1.76,0,3.23.34,4.4,1.03,1.17.69,2.05,1.74,2.64,3.15.59,1.41.88,3.18.88,5.32v14.08h-4.53v-13.77c0-1.32-.18-2.41-.53-3.28-.35-.87-.89-1.5-1.63-1.89s-1.64-.56-2.73-.51c-.88,0-1.69.14-2.42.42-.73.28-1.37.67-1.91,1.17-.54.5-.97,1.08-1.28,1.74-.31.66-.46,1.37-.46,2.13v13.99h-4.53Z"/>
          <path class="cls-1" d="M387.3,162.23c-1.91,0-3.65-.53-5.21-1.58-1.57-1.06-2.82-2.49-3.76-4.31-.94-1.82-1.41-3.87-1.41-6.16s.48-4.38,1.43-6.18c.95-1.8,2.24-3.22,3.87-4.25,1.63-1.03,3.45-1.54,5.48-1.54,1.2,0,2.3.18,3.3.53,1,.35,1.87.84,2.62,1.47s1.36,1.36,1.85,2.18.78,1.7.9,2.64l-1.01-.35v-5.98h4.58v23.1h-4.58v-5.5l1.06-.31c-.18.79-.54,1.56-1.08,2.31-.54.75-1.23,1.42-2.07,2s-1.76,1.06-2.77,1.41c-1.01.35-2.08.53-3.19.53ZM388.49,158.05c1.38,0,2.6-.34,3.65-1.01,1.06-.67,1.88-1.61,2.49-2.79.6-1.19.9-2.54.9-4.07s-.3-2.83-.9-4c-.6-1.17-1.43-2.1-2.49-2.77-1.06-.67-2.27-1.01-3.65-1.01s-2.55.34-3.59,1.01c-1.04.68-1.86,1.6-2.46,2.77-.6,1.17-.9,2.51-.9,4s.3,2.88.9,4.07c.6,1.19,1.42,2.12,2.46,2.79,1.04.67,2.24,1.01,3.59,1.01Z"/>
          <path class="cls-1" d="M407.06,161.79v-23.1h4.58v7.26l-.44-1.76c.32-1.11.87-2.13,1.65-3.04.78-.91,1.67-1.63,2.68-2.16,1.01-.53,2.06-.79,3.15-.79.5,0,.97.04,1.43.13.45.09.81.19,1.08.31l-1.19,4.93c-.35-.15-.74-.27-1.17-.37-.43-.1-.84-.15-1.25-.15-.79,0-1.55.15-2.27.46-.72.31-1.35.73-1.89,1.28s-.98,1.17-1.3,1.89c-.32.72-.48,1.5-.48,2.35v12.76h-4.58Z"/>
          <path class="cls-1" d="M434.51,162.23c-2.11,0-4-.52-5.65-1.56-1.66-1.04-2.97-2.46-3.94-4.27-.97-1.8-1.45-3.86-1.45-6.18s.48-4.38,1.43-6.18c.95-1.8,2.25-3.23,3.89-4.27,1.64-1.04,3.5-1.56,5.59-1.56,1.14,0,2.25.18,3.32.55,1.07.37,2.03.87,2.88,1.5.85.63,1.52,1.32,2,2.07.48.75.73,1.5.73,2.27l-1.32.09v-15.44h4.53v32.56h-4.53v-5.5h.88c0,.7-.24,1.4-.7,2.09-.47.69-1.09,1.33-1.87,1.91s-1.67,1.06-2.68,1.41c-1.01.35-2.05.53-3.1.53ZM435.13,158.31c1.38,0,2.6-.35,3.65-1.06,1.06-.7,1.88-1.66,2.49-2.88.6-1.22.9-2.6.9-4.16s-.3-2.94-.9-4.16c-.6-1.22-1.43-2.18-2.49-2.88s-2.27-1.06-3.65-1.06-2.6.35-3.65,1.06c-1.06.7-1.89,1.67-2.49,2.88-.6,1.22-.9,2.6-.9,4.16s.3,2.94.9,4.16c.6,1.22,1.43,2.18,2.49,2.88,1.06.71,2.27,1.06,3.65,1.06Z"/>
          <path class="cls-1" d="M467.82,161.79v-30.8h12.85c1.96,0,3.62.29,4.97.88,1.35.59,2.37,1.46,3.06,2.62.69,1.16,1.03,2.57,1.03,4.25s-.46,3.1-1.39,4.27c-.92,1.17-2.21,1.98-3.85,2.42v-.88c1.38.29,2.58.81,3.61,1.56,1.03.75,1.83,1.68,2.4,2.79.57,1.12.86,2.39.86,3.83s-.23,2.77-.68,3.89c-.46,1.13-1.13,2.08-2.02,2.84s-1.97,1.34-3.23,1.74c-1.26.4-2.7.59-4.31.59h-13.29ZM472.57,143.75h7.83c.88,0,1.67-.18,2.35-.53.69-.35,1.23-.84,1.63-1.45.4-.62.59-1.32.59-2.11,0-1.32-.44-2.33-1.32-3.04-.88-.71-2.14-1.06-3.78-1.06h-7.3v8.18ZM472.57,157.21h8.27c1.2,0,2.22-.18,3.06-.53s1.48-.87,1.94-1.56c.45-.69.68-1.52.68-2.49,0-.91-.24-1.69-.73-2.33-.48-.64-1.17-1.14-2.05-1.47-.88-.34-1.92-.51-3.12-.51h-8.05v8.89Z"/>
          <path class="cls-1" d="M497.43,161.79v-23.1h4.58v7.26l-.44-1.76c.32-1.11.87-2.13,1.65-3.04.78-.91,1.67-1.63,2.68-2.16,1.01-.53,2.06-.79,3.15-.79.5,0,.97.04,1.43.13.45.09.81.19,1.08.31l-1.19,4.93c-.35-.15-.74-.27-1.17-.37-.43-.1-.84-.15-1.25-.15-.79,0-1.55.15-2.27.46-.72.31-1.35.73-1.89,1.28s-.98,1.17-1.3,1.89c-.32.72-.48,1.5-.48,2.35v12.76h-4.58Z"/>
          <path class="cls-1" d="M525.77,162.23c-2.38,0-4.48-.51-6.31-1.52-1.83-1.01-3.27-2.4-4.31-4.16s-1.56-3.78-1.56-6.07c0-1.82.29-3.48.88-4.97.59-1.5,1.4-2.79,2.44-3.89,1.04-1.1,2.29-1.95,3.74-2.55,1.45-.6,3.03-.9,4.73-.9,1.5,0,2.89.29,4.18.86s2.41,1.36,3.37,2.35c.95,1,1.69,2.18,2.2,3.54.51,1.37.75,2.85.73,4.47l-.04,1.94h-18.88l-1.01-3.61h15.97l-.66.75v-1.06c-.09-.97-.41-1.83-.97-2.6-.56-.76-1.26-1.36-2.11-1.8-.85-.44-1.78-.66-2.77-.66-1.58,0-2.92.3-4,.9-1.09.6-1.91,1.48-2.46,2.64-.56,1.16-.84,2.59-.84,4.29s.34,3.01,1.01,4.2c.67,1.19,1.63,2.1,2.86,2.75,1.23.64,2.65.97,4.27.97,1.14,0,2.21-.19,3.19-.57.98-.38,2.05-1.07,3.19-2.07l2.29,3.21c-.7.71-1.56,1.32-2.57,1.85-1.01.53-2.08.95-3.21,1.25s-2.24.46-3.32.46Z"/>
          <path class="cls-1" d="M546.8,161.79l-7.88-23.1,4.58-.04,5.63,17.29-1.01-.09,6.12-13.51h2.73l6.16,13.55-1.19.09,5.68-17.29h4.58l-7.79,23.1h-3.12l-6.42-14.7,1.01.13-5.98,14.56h-3.08Z"/>
        </g>
        <g>
          <path d="M.18,161.79v-30.8h13.11c1.76,0,3.38.43,4.86,1.3,1.48.87,2.66,2.04,3.54,3.52.88,1.48,1.32,3.15,1.32,4.99,0,1.67-.44,3.23-1.32,4.66-.88,1.44-2.05,2.59-3.52,3.45s-3.09,1.3-4.88,1.3H4.93v11.57H.18ZM4.93,145.64h8.8c.85,0,1.61-.21,2.29-.64.67-.42,1.2-1.01,1.58-1.76s.57-1.58.57-2.49c0-1.03-.24-1.93-.73-2.71-.48-.78-1.16-1.39-2.02-1.83-.87-.44-1.84-.66-2.93-.66h-7.57v10.08ZM18.48,161.79l-7.83-13.9,4.88-1.1,8.71,15.05-5.76-.04Z"/>
          <path d="M40.3,162.23c-2.38,0-4.48-.51-6.31-1.52-1.83-1.01-3.27-2.4-4.31-4.16-1.04-1.76-1.56-3.79-1.56-6.07,0-1.82.29-3.48.88-4.97s1.4-2.79,2.44-3.89c1.04-1.1,2.29-1.95,3.74-2.55,1.45-.6,3.03-.9,4.73-.9,1.5,0,2.89.29,4.18.86,1.29.57,2.41,1.36,3.37,2.35s1.69,2.18,2.2,3.54c.51,1.36.75,2.85.73,4.47l-.04,1.94h-18.88l-1.01-3.61h15.97l-.66.75v-1.06c-.09-.97-.41-1.83-.97-2.6-.56-.76-1.26-1.37-2.11-1.8-.85-.44-1.78-.66-2.77-.66-1.58,0-2.92.3-4,.9-1.09.6-1.91,1.48-2.46,2.64-.56,1.16-.84,2.59-.84,4.29,0,1.61.34,3.01,1.01,4.2s1.63,2.1,2.86,2.75c1.23.65,2.65.97,4.27.97,1.14,0,2.21-.19,3.19-.57.98-.38,2.05-1.07,3.19-2.07l2.29,3.21c-.7.7-1.56,1.32-2.57,1.85-1.01.53-2.08.95-3.21,1.25-1.13.31-2.24.46-3.32.46Z"/>
          <path d="M66.22,171.91c-1.64,0-3.28-.26-4.91-.77-1.63-.51-2.94-1.18-3.94-2l1.67-3.52c.59.44,1.28.83,2.07,1.17.79.34,1.63.6,2.51.79.88.19,1.74.29,2.6.29,1.61,0,2.96-.26,4.05-.79,1.08-.53,1.91-1.31,2.46-2.33.56-1.03.84-2.3.84-3.83v-4.44l.48.31c-.15.91-.62,1.78-1.43,2.62-.81.84-1.81,1.52-3.01,2.04-1.2.53-2.43.79-3.7.79-2.2,0-4.16-.52-5.87-1.56-1.72-1.04-3.07-2.46-4.07-4.27-1-1.8-1.5-3.87-1.5-6.18s.49-4.38,1.47-6.18,2.33-3.23,4.05-4.27c1.72-1.04,3.64-1.56,5.79-1.56.88,0,1.73.11,2.55.33.82.22,1.58.53,2.29.92.7.4,1.33.83,1.89,1.3.56.47,1.01.97,1.36,1.5.35.53.57,1.03.66,1.5l-.97.35v-5.41h4.53v21.69c0,1.85-.27,3.48-.81,4.91-.54,1.42-1.33,2.62-2.35,3.61-1.03.98-2.27,1.73-3.74,2.24-1.47.51-3.12.77-4.97.77ZM66.4,158.05c1.44,0,2.71-.34,3.83-1.01,1.11-.67,1.98-1.6,2.6-2.77.62-1.17.92-2.52.92-4.05s-.32-2.88-.95-4.07c-.63-1.19-1.5-2.12-2.6-2.79-1.1-.67-2.37-1.01-3.81-1.01s-2.66.35-3.76,1.03c-1.1.69-1.97,1.63-2.6,2.82-.63,1.19-.95,2.53-.95,4.03s.31,2.84.95,4.03c.63,1.19,1.5,2.12,2.6,2.79,1.1.67,2.35,1.01,3.76,1.01Z"/>
          <path d="M92.97,162.23c-1.64,0-3.07-.38-4.29-1.14-1.22-.76-2.16-1.83-2.82-3.21-.66-1.38-.99-3.02-.99-4.93v-14.26h4.53v13.02c0,1.35.21,2.52.64,3.5.42.98,1.04,1.74,1.85,2.27.81.53,1.78.79,2.93.79.85,0,1.63-.14,2.33-.42.7-.28,1.31-.67,1.83-1.17.51-.5.92-1.1,1.21-1.8s.44-1.47.44-2.29v-13.9h4.53v23.1h-4.53v-4.84l.79-.53c-.35,1.09-.95,2.07-1.78,2.95s-1.83,1.58-2.97,2.09c-1.14.51-2.38.77-3.7.77Z"/>
          <path d="M112.38,161.79v-32.56h4.53v32.56h-4.53Z"/>
          <path d="M132.57,162.23c-1.91,0-3.65-.53-5.21-1.58-1.57-1.06-2.82-2.49-3.76-4.31-.94-1.82-1.41-3.87-1.41-6.16s.48-4.38,1.43-6.18c.95-1.8,2.24-3.22,3.87-4.25,1.63-1.03,3.45-1.54,5.48-1.54,1.2,0,2.3.18,3.3.53,1,.35,1.87.84,2.62,1.47.75.63,1.36,1.36,1.85,2.18.48.82.79,1.7.9,2.64l-1.01-.35v-5.98h4.58v23.1h-4.58v-5.5l1.06-.31c-.18.79-.54,1.56-1.08,2.31s-1.23,1.42-2.07,2-1.76,1.06-2.77,1.41-2.08.53-3.19.53ZM133.76,158.05c1.38,0,2.6-.34,3.65-1.01,1.06-.67,1.88-1.61,2.49-2.79s.9-2.54.9-4.07-.3-2.83-.9-4c-.6-1.17-1.43-2.1-2.49-2.77-1.06-.67-2.27-1.01-3.65-1.01s-2.54.34-3.59,1.01c-1.04.67-1.86,1.6-2.46,2.77-.6,1.17-.9,2.51-.9,4s.3,2.88.9,4.07c.6,1.19,1.42,2.12,2.46,2.79,1.04.67,2.24,1.01,3.59,1.01Z"/>
          <path d="M152.33,161.79v-23.1h4.58v7.26l-.44-1.76c.32-1.11.87-2.13,1.65-3.04s1.67-1.63,2.68-2.16c1.01-.53,2.06-.79,3.15-.79.5,0,.97.04,1.43.13s.81.19,1.08.31l-1.19,4.93c-.35-.15-.74-.27-1.17-.37-.43-.1-.84-.15-1.25-.15-.79,0-1.55.15-2.27.46-.72.31-1.35.73-1.89,1.28s-.98,1.17-1.3,1.89c-.32.72-.48,1.5-.48,2.35v12.76h-4.58Z"/>
        </g>
        <g>
          <path d="M0,249.79v-30.8h5.41l11.22,18.26-3.17-.04,11.35-18.22h5.15v30.8h-5.68v-11.57c0-2.64.07-5.02.2-7.13.13-2.11.36-4.21.68-6.29l.7,1.89-9.55,14.74h-2.9l-9.24-14.61.62-2.02c.32,1.97.55,3.98.68,6.05.13,2.07.2,4.53.2,7.37v11.57H0Z"/>
          <path d="M48.93,250.23c-2.44,0-4.58-.51-6.45-1.54-1.86-1.03-3.32-2.43-4.36-4.2s-1.56-3.81-1.56-6.09c0-1.82.29-3.48.88-4.97s1.4-2.79,2.44-3.89c1.04-1.1,2.29-1.95,3.74-2.55,1.45-.6,3.04-.9,4.77-.9,1.52,0,2.95.29,4.27.88,1.32.59,2.46,1.39,3.43,2.4.97,1.01,1.71,2.22,2.22,3.61.51,1.39.75,2.91.73,4.55l-.04,1.89h-18.79l-1.01-3.7h15.27l-.7.75v-.97c-.09-.91-.38-1.71-.88-2.4-.5-.69-1.14-1.23-1.91-1.63-.78-.4-1.64-.59-2.57-.59-1.44,0-2.65.28-3.63.84-.98.56-1.72,1.36-2.22,2.4-.5,1.04-.75,2.34-.75,3.89s.31,2.8.95,3.92c.63,1.12,1.53,1.97,2.68,2.57,1.16.6,2.51.9,4.07.9,1.08,0,2.08-.18,2.99-.53.91-.35,1.89-.98,2.95-1.89l2.68,3.74c-.79.73-1.69,1.36-2.71,1.87-1.01.51-2.08.92-3.19,1.21-1.12.29-2.21.44-3.3.44Z"/>
          <path d="M73.96,250.23c-2.05,0-3.89-.52-5.52-1.56s-2.92-2.46-3.87-4.27c-.95-1.8-1.43-3.88-1.43-6.23s.47-4.38,1.41-6.2c.94-1.82,2.22-3.25,3.85-4.29,1.63-1.04,3.47-1.56,5.52-1.56,1.11,0,2.19.18,3.23.53,1.04.35,1.97.83,2.79,1.43.82.6,1.47,1.27,1.96,2,.48.73.75,1.5.81,2.29l-1.45.18v-15.31h5.41v32.56h-5.24l-.13-5.46,1.06.09c-.03.73-.29,1.44-.77,2.11-.48.67-1.11,1.29-1.87,1.85-.76.56-1.65,1-2.66,1.34-1.01.34-2.05.51-3.1.51ZM75.02,245.65c1.26,0,2.38-.32,3.34-.97.97-.64,1.72-1.52,2.27-2.64.54-1.11.81-2.41.81-3.87s-.27-2.72-.81-3.85-1.3-2.01-2.27-2.64c-.97-.63-2.08-.95-3.34-.95s-2.38.32-3.34.95c-.97.63-1.72,1.51-2.27,2.64-.54,1.13-.81,2.41-.81,3.85s.27,2.76.81,3.87c.54,1.12,1.3,2,2.27,2.64.97.65,2.08.97,3.34.97Z"/>
          <path d="M96.89,221.67c-1.09,0-1.93-.27-2.53-.81-.6-.54-.9-1.31-.9-2.31,0-.94.31-1.7.92-2.29.62-.59,1.45-.88,2.51-.88,1.11,0,1.97.27,2.57.81.6.54.9,1.33.9,2.35,0,.91-.31,1.66-.92,2.24s-1.47.88-2.55.88ZM94.25,249.79v-23.19h5.41v23.19h-5.41Z"/>
          <path d="M115.37,250.23c-1.67,0-3.12-.38-4.36-1.12s-2.17-1.82-2.82-3.21c-.65-1.39-.97-3.06-.97-4.99v-14.3h5.41v13.16c0,1.23.19,2.28.57,3.15.38.87.94,1.53,1.67,2,.73.47,1.61.7,2.64.7.76,0,1.46-.12,2.09-.37.63-.25,1.18-.6,1.65-1.06.47-.45.84-1,1.1-1.63.26-.63.4-1.31.4-2.05v-13.9h5.41v23.19h-5.28l-.09-4.84.97-.53c-.35,1.12-.95,2.11-1.78,2.97-.84.87-1.83,1.55-2.97,2.07-1.14.51-2.36.77-3.65.77Z"/>
          <path d="M135.21,249.79v-23.19h5.32l.09,4.66-.88.35c.26-.76.66-1.47,1.19-2.13s1.16-1.23,1.89-1.72c.73-.48,1.51-.86,2.33-1.14.82-.28,1.66-.42,2.51-.42,1.26,0,2.38.2,3.37.59s1.8,1.02,2.46,1.87c.66.85,1.15,1.94,1.47,3.26l-.84-.18.35-.7c.32-.7.78-1.34,1.36-1.91.59-.57,1.25-1.08,1.98-1.54.73-.45,1.5-.8,2.31-1.03.81-.23,1.61-.35,2.4-.35,1.76,0,3.23.35,4.4,1.06,1.17.7,2.05,1.78,2.64,3.21s.88,3.21.88,5.32v13.99h-5.46v-13.64c0-1.17-.15-2.14-.46-2.9-.31-.76-.78-1.33-1.41-1.69-.63-.37-1.42-.55-2.35-.55-.73,0-1.43.12-2.09.37s-1.22.6-1.69,1.06c-.47.46-.84.98-1.1,1.56-.26.59-.4,1.23-.4,1.94v13.86h-5.46v-13.68c0-1.11-.16-2.04-.48-2.79-.32-.75-.79-1.32-1.41-1.72-.62-.4-1.36-.59-2.24-.59-.73,0-1.42.12-2.07.37-.65.25-1.2.59-1.67,1.03-.47.44-.84.95-1.1,1.54s-.4,1.23-.4,1.94v13.9h-5.46Z"/>
        </g>
        <g>
          <path d="M.4,337.79v-30.8h3.43v27.46h14.78v3.34H.4Z"/>
          <path d="M27.28,309.85c-.82,0-1.45-.21-1.87-.64-.43-.42-.64-1-.64-1.74s.22-1.32.66-1.76c.44-.44,1.06-.66,1.85-.66s1.41.21,1.85.64c.44.43.66,1.02.66,1.78,0,.7-.22,1.28-.66,1.71s-1.06.66-1.85.66ZM25.65,337.79v-22.97h3.3v22.97h-3.3Z"/>
          <path d="M46.86,347.91c-1.7,0-3.32-.26-4.84-.79-1.53-.53-2.79-1.19-3.78-1.98l1.32-2.77c.59.47,1.27.89,2.05,1.25.78.37,1.62.66,2.53.88.91.22,1.83.33,2.77.33,1.7,0,3.15-.32,4.33-.95,1.19-.63,2.1-1.56,2.73-2.79s.95-2.76.95-4.58v-4.4l.53-.13c-.26,1.12-.84,2.15-1.72,3.1s-1.95,1.72-3.21,2.29c-1.26.57-2.6.86-4,.86-2.14,0-4.05-.51-5.74-1.54-1.69-1.03-3.01-2.44-3.98-4.25-.97-1.8-1.45-3.85-1.45-6.14s.49-4.38,1.47-6.18c.98-1.8,2.31-3.22,3.98-4.25,1.67-1.03,3.55-1.54,5.63-1.54.91,0,1.79.11,2.64.33.85.22,1.63.54,2.35.95s1.37.88,1.96,1.41c.59.53,1.08,1.1,1.47,1.72.4.62.68,1.25.86,1.89l-.92-.13.13-5.68h3.3v21.56c0,1.85-.26,3.48-.79,4.91-.53,1.42-1.3,2.62-2.31,3.61-1.01.98-2.21,1.73-3.61,2.24-1.39.51-2.94.77-4.64.77ZM46.9,335.06c1.55,0,2.94-.38,4.16-1.12,1.22-.75,2.18-1.78,2.88-3.1s1.06-2.84,1.06-4.58-.34-3.21-1.03-4.53c-.69-1.32-1.65-2.36-2.88-3.12-1.23-.76-2.62-1.14-4.18-1.14s-2.99.38-4.2,1.14c-1.22.76-2.18,1.8-2.88,3.12-.7,1.32-1.06,2.83-1.06,4.53s.34,3.18,1.03,4.51c.69,1.34,1.64,2.38,2.86,3.15,1.22.76,2.63,1.14,4.25,1.14Z"/>
          <path d="M65.43,337.79v-32.56h3.3v14.61l-.66.66c.32-1.2.92-2.27,1.8-3.19s1.91-1.65,3.1-2.18c1.19-.53,2.4-.79,3.63-.79,1.76,0,3.23.34,4.4,1.01,1.17.68,2.05,1.72,2.62,3.12.57,1.41.86,3.2.86,5.37v13.95h-3.34v-13.77c0-1.52-.2-2.78-.59-3.76-.4-.98-1-1.71-1.83-2.18s-1.85-.69-3.08-.66c-.97,0-1.88.17-2.73.51-.85.34-1.58.8-2.2,1.39-.62.59-1.1,1.26-1.45,2.02-.35.76-.53,1.58-.53,2.46v13.99h-3.3Z"/>
          <path d="M89.54,317.99v-3.17h14.3v3.17h-14.3ZM94.73,337.79v-29h3.3v29h-3.3Z"/>
        </g>
        <g>
          <path d="M.62,425.79v-30.8h17.91v2.2H2.82v26.4h15.53v2.2H.62ZM1.67,411v-2.2h14.34v2.2H1.67Z"/>
          <path d="M23.19,425.79l9.64-12.28,1.32,1.58-8.27,10.69h-2.68ZM41.54,425.79l-8.45-10.74-.13-.18-9.42-11.97h2.77l8.27,10.56.13.18,9.59,12.14h-2.77ZM34.89,414.48l-1.32-1.58,7.7-9.99h2.68l-9.06,11.57Z"/>
          <path d="M47.08,404.93v-2.02h13.86v2.02h-13.86ZM52.58,425.79v-29h2.2v29h-2.2Z"/>
          <path d="M65.69,425.79v-22.88h2.11l.22,5.1h-.31c.32-.97.82-1.88,1.5-2.73s1.5-1.54,2.49-2.07c.98-.53,2.12-.79,3.41-.79.5,0,.96.04,1.39.11.42.07.81.15,1.17.24l-.66,2.55c-.41-.18-.81-.29-1.19-.35-.38-.06-.72-.09-1.01-.09-1.17,0-2.19.21-3.06.62-.87.41-1.58.98-2.16,1.69-.57.72-1,1.53-1.28,2.44-.28.91-.42,1.86-.42,2.86v13.29h-2.2Z"/>
          <path d="M89.8,426.23c-2.08,0-3.95-.51-5.59-1.54-1.64-1.03-2.94-2.43-3.89-4.22-.95-1.79-1.43-3.83-1.43-6.12s.49-4.37,1.47-6.16c.98-1.79,2.29-3.2,3.94-4.22,1.64-1.03,3.48-1.54,5.5-1.54,1.17,0,2.29.18,3.34.53,1.06.35,2.01.84,2.86,1.47s1.58,1.37,2.2,2.22,1.06,1.78,1.32,2.77l-.88-.57.22-5.94h2.11v22.88h-2.2v-5.72l.75-.84c-.26.97-.7,1.88-1.32,2.73s-1.35,1.6-2.2,2.24-1.8,1.14-2.86,1.5c-1.06.35-2.17.53-3.34.53ZM90.11,424.03c1.67,0,3.17-.42,4.51-1.25s2.39-1.98,3.17-3.43c.78-1.45,1.17-3.13,1.17-5.04s-.38-3.54-1.14-4.99c-.76-1.45-1.81-2.6-3.15-3.43s-2.85-1.25-4.55-1.25-3.26.42-4.6,1.25-2.38,1.98-3.15,3.43c-.76,1.45-1.14,3.12-1.14,4.99s.37,3.5,1.12,4.97c.75,1.47,1.79,2.63,3.12,3.48,1.33.85,2.88,1.28,4.64,1.28Z"/>
          <path d="M109.74,425.79v-30.8h2.2v28.6h15.09v2.2h-17.29Z"/>
          <path d="M134.68,398.11c-.65,0-1.14-.18-1.5-.53-.35-.35-.53-.84-.53-1.45s.18-1.06.53-1.43c.35-.37.85-.55,1.5-.55s1.14.18,1.5.53.53.84.53,1.45-.18,1.06-.53,1.43c-.35.37-.85.55-1.5.55ZM133.58,425.79v-22.88h2.2v22.88h-2.2Z"/>
          <path d="M153.51,435.91c-1.76,0-3.34-.27-4.75-.81s-2.63-1.2-3.65-1.96l1.01-2.07c.59.5,1.26.95,2.02,1.34s1.61.71,2.53.95,1.91.35,2.97.35c1.76,0,3.29-.36,4.58-1.08,1.29-.72,2.28-1.79,2.97-3.21.69-1.42,1.03-3.19,1.03-5.3v-4.31l.62-.57c-.38,1.32-1.04,2.51-1.98,3.56s-2.08,1.89-3.41,2.51c-1.33.62-2.78.92-4.33.92-2.08,0-3.95-.51-5.59-1.54-1.64-1.03-2.94-2.43-3.89-4.22-.95-1.79-1.43-3.83-1.43-6.12s.49-4.37,1.47-6.16c.98-1.79,2.29-3.2,3.94-4.22,1.64-1.03,3.48-1.54,5.5-1.54.94,0,1.84.12,2.71.35.87.24,1.67.56,2.42.97.75.41,1.43.91,2.05,1.5.62.59,1.14,1.23,1.56,1.94.42.7.75,1.45.99,2.24l-.84-.57.22-5.94h2.2v21.47c0,1.85-.26,3.48-.79,4.91-.53,1.42-1.28,2.62-2.27,3.61-.98.98-2.14,1.73-3.48,2.24-1.33.51-2.79.77-4.38.77ZM153.43,424.03c1.67,0,3.17-.42,4.51-1.25s2.39-1.98,3.17-3.43c.78-1.45,1.17-3.13,1.17-5.04s-.38-3.54-1.14-4.99c-.76-1.45-1.81-2.6-3.15-3.43s-2.85-1.25-4.55-1.25-3.26.42-4.6,1.25-2.38,1.98-3.15,3.43c-.76,1.45-1.14,3.12-1.14,4.99s.37,3.5,1.12,4.97c.75,1.47,1.79,2.63,3.12,3.48,1.33.85,2.88,1.28,4.64,1.28Z"/>
          <path d="M171.64,425.79v-32.56h2.2v14.96l-.53.84c.32-1.38.94-2.56,1.85-3.54.91-.98,1.97-1.74,3.19-2.27,1.22-.53,2.44-.79,3.67-.79,1.76,0,3.22.34,4.38,1.01,1.16.68,2.02,1.72,2.57,3.12s.84,3.2.84,5.37v13.86h-2.2v-13.77c0-1.7-.22-3.1-.66-4.2-.44-1.1-1.11-1.92-2-2.46-.9-.54-2.03-.81-3.41-.81-1.09,0-2.1.2-3.04.59-.94.4-1.75.93-2.44,1.61s-1.23,1.45-1.63,2.31c-.4.87-.59,1.78-.59,2.75v13.99h-2.2Z"/>
          <path d="M194.96,404.93v-2.02h13.86v2.02h-13.86ZM200.46,425.79v-29h2.2v29h-2.2Z"/>
        </g>
        <g>
          <path class="cls-1" d="M289.03,250.23c-2.2,0-4.24-.4-6.12-1.19-1.88-.79-3.51-1.9-4.91-3.32s-2.47-3.1-3.23-5.04c-.76-1.94-1.14-4.05-1.14-6.34s.38-4.4,1.14-6.34c.76-1.94,1.84-3.62,3.23-5.04,1.39-1.42,3.03-2.53,4.91-3.32s3.92-1.19,6.12-1.19,4.28.4,6.16,1.19c1.88.79,3.5,1.91,4.88,3.34,1.38,1.44,2.45,3.12,3.21,5.04.76,1.92,1.14,4.03,1.14,6.31s-.38,4.36-1.14,6.29-1.83,3.62-3.21,5.06-3.01,2.55-4.88,3.34c-1.88.79-3.93,1.19-6.16,1.19ZM289.03,244.77c1.41,0,2.69-.26,3.85-.77,1.16-.51,2.16-1.25,3.01-2.2.85-.95,1.52-2.06,2-3.32.48-1.26.73-2.64.73-4.14s-.24-2.87-.73-4.14c-.48-1.26-1.15-2.37-2-3.32-.85-.95-1.86-1.69-3.01-2.2-1.16-.51-2.44-.77-3.85-.77s-2.66.26-3.83.77c-1.17.51-2.19,1.24-3.04,2.18-.85.94-1.51,2.04-1.98,3.3-.47,1.26-.7,2.66-.7,4.18s.23,2.88.7,4.16c.47,1.28,1.13,2.38,1.98,3.32.85.94,1.86,1.67,3.04,2.18,1.17.51,2.45.77,3.83.77Z"/>
          <path class="cls-1" d="M310.1,249.79v-23.19h5.32l.09,7.39-.75-1.67c.32-1.17.88-2.23,1.67-3.17.79-.94,1.71-1.68,2.75-2.22,1.04-.54,2.13-.81,3.28-.81.5,0,.97.04,1.43.13.45.09.83.19,1.12.31l-1.45,5.94c-.32-.18-.72-.32-1.19-.44-.47-.12-.94-.18-1.41-.18-.73,0-1.43.14-2.09.42-.66.28-1.24.67-1.74,1.17s-.89,1.08-1.17,1.74c-.28.66-.42,1.4-.42,2.22v12.36h-5.46Z"/>
          <path class="cls-1" d="M338.39,250.23c-2.17,0-4.12-.53-5.85-1.58s-3.09-2.49-4.09-4.31c-1-1.82-1.5-3.87-1.5-6.16s.5-4.34,1.5-6.16c1-1.82,2.36-3.26,4.09-4.31,1.73-1.06,3.68-1.58,5.85-1.58s3.97.4,5.68,1.19,3.02,1.89,3.96,3.3l-2.99,3.61c-.44-.62-1-1.17-1.67-1.67-.67-.5-1.39-.89-2.16-1.19-.76-.29-1.53-.44-2.29-.44-1.29,0-2.44.32-3.45.95-1.01.63-1.81,1.5-2.4,2.6-.59,1.1-.88,2.34-.88,3.72s.3,2.61.9,3.7c.6,1.08,1.42,1.95,2.44,2.6,1.03.65,2.17.97,3.43.97.76,0,1.5-.12,2.22-.37.72-.25,1.4-.61,2.05-1.08.64-.47,1.25-1.06,1.8-1.76l2.99,3.65c-1,1.29-2.37,2.34-4.11,3.15s-3.59,1.21-5.52,1.21Z"/>
          <path class="cls-1" d="M352.96,249.79v-32.56h5.37v14.12l-1.01.53c.29-1.06.87-2.02,1.72-2.88.85-.86,1.86-1.56,3.04-2.09,1.17-.53,2.38-.79,3.61-.79,1.76,0,3.23.35,4.42,1.05,1.19.71,2.08,1.76,2.68,3.17.6,1.41.9,3.17.9,5.28v14.17h-5.41v-13.77c0-1.17-.16-2.15-.48-2.93-.32-.78-.82-1.35-1.5-1.71-.68-.37-1.5-.54-2.46-.51-.79,0-1.52.12-2.18.37-.66.25-1.23.6-1.72,1.06-.48.46-.87.97-1.14,1.56-.28.59-.42,1.23-.42,1.94v13.99h-5.41Z"/>
          <path class="cls-1" d="M389.3,250.23c-1.91,0-3.64-.53-5.19-1.58s-2.8-2.49-3.74-4.31c-.94-1.82-1.41-3.89-1.41-6.2s.47-4.38,1.41-6.2c.94-1.82,2.21-3.24,3.83-4.27,1.61-1.03,3.43-1.54,5.46-1.54,1.17,0,2.24.17,3.21.51.97.34,1.82.81,2.55,1.43.73.62,1.34,1.32,1.83,2.11.48.79.81,1.64.99,2.55l-1.19-.31v-5.81h5.46v23.19h-5.5v-5.54l1.28-.22c-.21.79-.58,1.56-1.12,2.31s-1.22,1.41-2.02,1.98c-.81.57-1.7,1.03-2.68,1.39-.98.35-2.03.53-3.15.53ZM390.8,245.43c1.26,0,2.38-.31,3.34-.92s1.72-1.47,2.27-2.57.81-2.37.81-3.81-.27-2.65-.81-3.74c-.54-1.08-1.3-1.94-2.27-2.55-.97-.62-2.08-.92-3.34-.92s-2.37.31-3.32.92c-.95.62-1.69,1.47-2.22,2.55-.53,1.09-.79,2.33-.79,3.74s.26,2.71.79,3.81c.53,1.1,1.27,1.96,2.22,2.57s2.06.92,3.32.92Z"/>
          <path class="cls-1" d="M409.59,249.79v-23.19h5.32l.09,7.39-.75-1.67c.32-1.17.88-2.23,1.67-3.17.79-.94,1.71-1.68,2.75-2.22,1.04-.54,2.13-.81,3.28-.81.5,0,.97.04,1.43.13.45.09.83.19,1.12.31l-1.45,5.94c-.32-.18-.72-.32-1.19-.44-.47-.12-.94-.18-1.41-.18-.73,0-1.43.14-2.09.42-.66.28-1.24.67-1.74,1.17s-.89,1.08-1.17,1.74c-.28.66-.42,1.4-.42,2.22v12.36h-5.46Z"/>
          <path class="cls-1" d="M437.53,250.23c-2.05,0-3.89-.52-5.52-1.56-1.63-1.04-2.92-2.46-3.87-4.27-.95-1.8-1.43-3.88-1.43-6.23s.47-4.38,1.41-6.2c.94-1.82,2.22-3.25,3.85-4.29,1.63-1.04,3.47-1.56,5.52-1.56,1.11,0,2.19.18,3.23.53s1.97.83,2.79,1.43c.82.6,1.47,1.27,1.96,2,.48.73.75,1.5.81,2.29l-1.45.18v-15.31h5.41v32.56h-5.24l-.13-5.46,1.06.09c-.03.73-.29,1.44-.77,2.11-.48.67-1.11,1.29-1.87,1.85s-1.65,1-2.66,1.34-2.05.51-3.1.51ZM438.58,245.65c1.26,0,2.38-.32,3.34-.97s1.72-1.52,2.27-2.64c.54-1.12.81-2.41.81-3.87s-.27-2.72-.81-3.85c-.54-1.13-1.3-2.01-2.27-2.64-.97-.63-2.08-.95-3.34-.95s-2.38.32-3.34.95c-.97.63-1.72,1.51-2.27,2.64-.54,1.13-.81,2.41-.81,3.85s.27,2.76.81,3.87,1.3,1.99,2.27,2.64,2.08.97,3.34.97Z"/>
          <path class="cls-1" d="M471.89,249.79v-30.8h13.11c2.02,0,3.73.29,5.13.88,1.39.59,2.45,1.46,3.17,2.62.72,1.16,1.08,2.56,1.08,4.2s-.46,3.14-1.36,4.31c-.91,1.17-2.19,1.98-3.83,2.42l-.04-.88c1.38.29,2.58.81,3.61,1.56,1.03.75,1.83,1.67,2.4,2.77.57,1.1.86,2.35.86,3.76,0,1.5-.24,2.82-.73,3.96-.48,1.14-1.2,2.1-2.13,2.86-.94.76-2.05,1.34-3.34,1.74s-2.74.59-4.36.59h-13.55ZM477.48,231.62h7c.85,0,1.59-.16,2.22-.48.63-.32,1.12-.76,1.47-1.32.35-.56.53-1.2.53-1.94,0-1.17-.4-2.09-1.19-2.75s-1.95-.99-3.48-.99h-6.56v7.48ZM477.48,244.64h7.7c1.08,0,2-.16,2.75-.48.75-.32,1.32-.8,1.72-1.43.4-.63.59-1.39.59-2.27,0-.82-.21-1.53-.64-2.11-.43-.59-1.03-1.03-1.83-1.34-.79-.31-1.73-.46-2.82-.46h-7.48v8.1Z"/>
          <path class="cls-1" d="M501.98,249.79v-23.19h5.32l.09,7.39-.75-1.67c.32-1.17.88-2.23,1.67-3.17.79-.94,1.71-1.68,2.75-2.22,1.04-.54,2.13-.81,3.28-.81.5,0,.97.04,1.43.13s.83.19,1.12.31l-1.45,5.94c-.32-.18-.72-.32-1.19-.44-.47-.12-.94-.18-1.41-.18-.73,0-1.43.14-2.09.42s-1.24.67-1.74,1.17c-.5.5-.89,1.08-1.17,1.74-.28.66-.42,1.4-.42,2.22v12.36h-5.46Z"/>
          <path class="cls-1" d="M531.2,250.23c-2.44,0-4.58-.51-6.45-1.54-1.86-1.03-3.32-2.43-4.36-4.2-1.04-1.77-1.56-3.81-1.56-6.09,0-1.82.29-3.48.88-4.97.59-1.5,1.4-2.79,2.44-3.89,1.04-1.1,2.29-1.95,3.74-2.55,1.45-.6,3.04-.9,4.77-.9,1.52,0,2.95.29,4.27.88,1.32.59,2.46,1.38,3.43,2.4s1.71,2.22,2.22,3.61c.51,1.39.75,2.91.73,4.55l-.04,1.89h-18.79l-1.01-3.7h15.27l-.7.75v-.97c-.09-.91-.38-1.71-.88-2.4-.5-.69-1.14-1.23-1.91-1.63-.78-.4-1.64-.59-2.57-.59-1.44,0-2.65.28-3.63.84-.98.56-1.72,1.36-2.22,2.4-.5,1.04-.75,2.34-.75,3.89s.31,2.8.95,3.92c.63,1.12,1.53,1.97,2.68,2.57,1.16.6,2.51.9,4.07.9,1.08,0,2.08-.18,2.99-.53.91-.35,1.89-.98,2.95-1.89l2.68,3.74c-.79.73-1.69,1.36-2.71,1.87-1.01.51-2.08.92-3.19,1.21-1.12.29-2.21.44-3.3.44Z"/>
          <path class="cls-1" d="M551.92,249.79l-7.79-23.19,5.54-.04,5.19,16.54-.97-.09,5.63-12.94h3.26l5.76,12.94-1.14.13,5.24-16.54h5.54l-7.83,23.19h-3.87l-5.94-13.9.84.09-5.63,13.82h-3.83Z"/>
        </g>
        <g>
          <path class="cls-1" d="M288.76,338.23c-2.17,0-4.17-.39-6.01-1.17-1.83-.78-3.43-1.87-4.8-3.28-1.36-1.41-2.42-3.07-3.17-4.99-.75-1.92-1.12-4.03-1.12-6.31s.37-4.39,1.12-6.31c.75-1.92,1.8-3.59,3.17-5.02,1.36-1.42,2.96-2.52,4.8-3.3,1.83-.78,3.83-1.17,6.01-1.17s4.22.39,6.05,1.17c1.83.78,3.43,1.88,4.8,3.3,1.36,1.42,2.42,3.1,3.17,5.02.75,1.92,1.12,4.03,1.12,6.31s-.37,4.35-1.12,6.27c-.75,1.92-1.8,3.59-3.17,5.02s-2.96,2.52-4.8,3.3c-1.83.78-3.85,1.17-6.05,1.17ZM288.76,334.84c1.67,0,3.22-.3,4.64-.9,1.42-.6,2.65-1.46,3.67-2.57,1.03-1.12,1.83-2.43,2.4-3.94s.86-3.16.86-4.95-.29-3.48-.86-4.99c-.57-1.51-1.37-2.82-2.4-3.94s-2.25-1.98-3.67-2.6c-1.42-.62-2.97-.92-4.64-.92s-3.22.31-4.64.92c-1.42.62-2.65,1.48-3.67,2.6-1.03,1.12-1.82,2.43-2.38,3.94-.56,1.51-.84,3.18-.84,4.99s.28,3.44.84,4.95c.56,1.51,1.35,2.82,2.38,3.94,1.03,1.11,2.25,1.97,3.67,2.57,1.42.6,2.97.9,4.64.9Z"/>
          <path class="cls-1" d="M309.7,337.79v-22.97h3.3l.09,6.12-.35-.84c.32-1.03.84-1.98,1.56-2.86.72-.88,1.58-1.58,2.57-2.11,1-.53,2.1-.79,3.3-.79.5,0,.97.04,1.41.11.44.07.81.17,1.1.29l-.92,3.7c-.38-.18-.77-.3-1.17-.37-.4-.07-.77-.11-1.12-.11-1,0-1.89.18-2.68.53s-1.47.84-2.02,1.47-.98,1.36-1.28,2.18c-.29.82-.44,1.7-.44,2.64v13.02h-3.34Z"/>
          <path class="cls-1" d="M335.62,338.23c-2.17,0-4.11-.52-5.81-1.56-1.7-1.04-3.04-2.46-4.03-4.27-.98-1.8-1.47-3.85-1.47-6.14s.49-4.33,1.47-6.14c.98-1.8,2.32-3.22,4.03-4.25,1.7-1.03,3.65-1.54,5.85-1.54,1.96,0,3.75.39,5.37,1.17,1.61.78,2.9,1.86,3.87,3.23l-1.94,2.38c-.56-.73-1.23-1.38-2-1.94s-1.61-.99-2.51-1.3c-.89-.31-1.78-.46-2.66-.46-1.55,0-2.95.39-4.18,1.17-1.23.78-2.21,1.83-2.93,3.15-.72,1.32-1.08,2.83-1.08,4.53s.36,3.22,1.08,4.55c.72,1.34,1.69,2.38,2.93,3.15s2.61,1.14,4.14,1.14c.88,0,1.75-.14,2.6-.42.85-.28,1.66-.68,2.42-1.21.76-.53,1.47-1.19,2.11-1.98l1.94,2.38c-1,1.32-2.33,2.38-4,3.17-1.67.79-3.4,1.19-5.19,1.19Z"/>
          <path class="cls-1" d="M349.87,337.79v-32.56h3.3v14.61l-.66.66c.32-1.2.92-2.27,1.8-3.19.88-.92,1.91-1.65,3.1-2.18,1.19-.53,2.4-.79,3.63-.79,1.76,0,3.23.34,4.4,1.01,1.17.67,2.05,1.72,2.62,3.12.57,1.41.86,3.2.86,5.37v13.95h-3.34v-13.77c0-1.52-.2-2.78-.59-3.76-.4-.98-1.01-1.71-1.83-2.18-.82-.47-1.85-.69-3.08-.66-.97,0-1.88.17-2.73.51-.85.34-1.58.8-2.2,1.39-.62.59-1.1,1.26-1.45,2.02-.35.76-.53,1.58-.53,2.46v13.99h-3.3Z"/>
          <path class="cls-1" d="M384.98,338.23c-2,0-3.8-.52-5.41-1.56-1.61-1.04-2.89-2.46-3.83-4.27-.94-1.8-1.41-3.85-1.41-6.14s.48-4.37,1.45-6.16c.97-1.79,2.27-3.2,3.89-4.22s3.45-1.54,5.48-1.54c1.2,0,2.32.18,3.34.53,1.03.35,1.94.84,2.75,1.47.81.63,1.48,1.37,2.02,2.2s.92,1.74,1.12,2.71l-.97-.48.13-5.94h3.3v22.97h-3.34v-5.63l.88-.57c-.21.88-.6,1.72-1.19,2.53-.59.81-1.3,1.52-2.13,2.13-.84.62-1.78,1.1-2.82,1.45-1.04.35-2.13.53-3.28.53ZM385.73,335.06c1.53,0,2.89-.37,4.09-1.12s2.15-1.79,2.84-3.12c.69-1.33,1.03-2.85,1.03-4.55s-.34-3.21-1.03-4.53c-.69-1.32-1.64-2.36-2.84-3.12s-2.57-1.14-4.09-1.14-2.93.38-4.11,1.14c-1.19.76-2.13,1.8-2.82,3.12-.69,1.32-1.03,2.83-1.03,4.53s.34,3.17,1.01,4.51,1.61,2.38,2.82,3.15c1.2.76,2.58,1.14,4.14,1.14Z"/>
          <path class="cls-1" d="M404.08,337.79v-22.97h3.3l.09,6.12-.35-.84c.32-1.03.84-1.98,1.56-2.86.72-.88,1.58-1.58,2.57-2.11,1-.53,2.1-.79,3.3-.79.5,0,.97.04,1.41.11.44.07.81.17,1.1.29l-.92,3.7c-.38-.18-.77-.3-1.17-.37-.4-.07-.77-.11-1.12-.11-1,0-1.89.18-2.68.53s-1.47.84-2.02,1.47c-.56.63-.98,1.36-1.28,2.18s-.44,1.7-.44,2.64v13.02h-3.34Z"/>
          <path class="cls-1" d="M429.91,338.23c-2.08,0-3.95-.51-5.61-1.54-1.66-1.03-2.96-2.44-3.92-4.25s-1.43-3.85-1.43-6.14.48-4.38,1.45-6.18c.97-1.8,2.27-3.22,3.92-4.25,1.64-1.03,3.49-1.54,5.54-1.54,1.14,0,2.25.18,3.32.53,1.07.35,2.03.84,2.88,1.47.85.63,1.55,1.35,2.11,2.16.56.81.89,1.65,1.01,2.53l-1.01-.35v-15.44h3.3v32.56h-3.26l-.09-5.72.84-.31c-.12.82-.45,1.62-.99,2.4-.54.78-1.22,1.47-2.05,2.09-.82.62-1.75,1.1-2.79,1.45-1.04.35-2.12.53-3.23.53ZM430.39,335.19c1.53,0,2.89-.38,4.09-1.14,1.2-.76,2.15-1.82,2.84-3.17.69-1.35,1.03-2.89,1.03-4.62s-.34-3.26-1.03-4.6c-.69-1.33-1.64-2.39-2.84-3.17-1.2-.78-2.57-1.17-4.09-1.17s-2.97.39-4.16,1.17c-1.19.78-2.13,1.83-2.82,3.17-.69,1.34-1.03,2.87-1.03,4.6s.34,3.23,1.01,4.58c.67,1.35,1.61,2.41,2.82,3.19,1.2.78,2.6,1.17,4.18,1.17Z"/>
          <path class="cls-1" d="M463.12,337.79v-30.8h12.5c1.79,0,3.34.32,4.64.95,1.31.63,2.31,1.53,3.01,2.68.7,1.16,1.06,2.53,1.06,4.11,0,1.7-.48,3.16-1.45,4.38-.97,1.22-2.29,2.06-3.96,2.53l-.09-.84c1.44.26,2.68.77,3.74,1.52,1.06.75,1.88,1.67,2.49,2.75.6,1.09.9,2.3.9,3.65s-.24,2.62-.7,3.74c-.47,1.12-1.14,2.07-2,2.86-.87.79-1.91,1.4-3.12,1.83-1.22.43-2.57.64-4.07.64h-12.94ZM466.56,320.23h8.8c1.06,0,1.99-.21,2.82-.64s1.47-1.01,1.94-1.76c.47-.75.7-1.59.7-2.53,0-1.5-.51-2.7-1.52-3.61-1.01-.91-2.43-1.37-4.25-1.37h-8.49v9.9ZM466.56,334.45h9.24c1.32,0,2.47-.23,3.45-.68.98-.45,1.75-1.11,2.29-1.96.54-.85.81-1.83.81-2.95,0-1.06-.29-1.98-.86-2.77-.57-.79-1.36-1.41-2.38-1.85-1.01-.44-2.19-.66-3.54-.66h-9.02v10.87Z"/>
          <path class="cls-1" d="M492.12,337.79v-22.97h3.3l.09,6.12-.35-.84c.32-1.03.84-1.98,1.56-2.86.72-.88,1.58-1.58,2.57-2.11,1-.53,2.1-.79,3.3-.79.5,0,.97.04,1.41.11.44.07.81.17,1.1.29l-.92,3.7c-.38-.18-.77-.3-1.17-.37-.4-.07-.77-.11-1.12-.11-1,0-1.89.18-2.68.53s-1.47.84-2.02,1.47c-.56.63-.98,1.36-1.28,2.18s-.44,1.7-.44,2.64v13.02h-3.34Z"/>
          <path class="cls-1" d="M518.48,338.23c-2.29,0-4.32-.5-6.09-1.5-1.78-1-3.16-2.39-4.16-4.18s-1.5-3.84-1.5-6.16c0-1.79.28-3.41.84-4.86.56-1.45,1.34-2.72,2.35-3.81,1.01-1.08,2.22-1.93,3.63-2.53,1.41-.6,2.93-.9,4.58-.9,1.55,0,2.97.28,4.25.84,1.28.56,2.38,1.33,3.3,2.31.92.98,1.62,2.15,2.09,3.5.47,1.35.67,2.83.62,4.44l-.04,1.54h-19.14l-.48-2.77h17.12l-.79.75v-1.06c-.06-1.05-.37-2.07-.92-3.06s-1.34-1.78-2.35-2.4c-1.01-.62-2.22-.92-3.63-.92-1.64,0-3.07.33-4.27.99-1.2.66-2.13,1.63-2.77,2.93-.65,1.29-.97,2.89-.97,4.79s.35,3.4,1.06,4.73c.7,1.34,1.71,2.37,3.01,3.1,1.3.73,2.88,1.1,4.73,1.1,1.08,0,2.16-.18,3.23-.55,1.07-.37,2.25-1.09,3.54-2.18l1.72,2.38c-.68.68-1.48,1.27-2.42,1.78-.94.51-1.97.92-3.08,1.23-1.12.31-2.26.46-3.43.46Z"/>
          <path class="cls-1" d="M538.85,337.79l-7.96-22.97,3.52-.04,6.2,18.7-1.1-.09,6.73-15.05h1.98l6.78,15.05-1.32.09,6.34-18.66h3.48l-7.96,22.97h-1.94l-7.13-16.37,1.32.09-6.91,16.28h-2.02Z"/>
        </g>
        <g>
          <path class="cls-1" d="M288.77,426.23c-2.2,0-4.22-.39-6.05-1.17-1.83-.78-3.43-1.86-4.8-3.26-1.36-1.39-2.41-3.05-3.15-4.97-.73-1.92-1.1-4.03-1.1-6.31s.37-4.39,1.1-6.31c.73-1.92,1.78-3.59,3.15-4.99,1.36-1.41,2.96-2.5,4.8-3.28,1.83-.78,3.85-1.17,6.05-1.17s4.22.39,6.07,1.17c1.85.78,3.45,1.87,4.8,3.28,1.35,1.41,2.4,3.07,3.15,4.99.75,1.92,1.12,4.03,1.12,6.31s-.37,4.39-1.12,6.31c-.75,1.92-1.8,3.58-3.15,4.97-1.35,1.39-2.95,2.48-4.8,3.26-1.85.78-3.87,1.17-6.07,1.17ZM288.77,424.03c1.85,0,3.56-.33,5.13-.99,1.57-.66,2.93-1.6,4.07-2.82,1.14-1.22,2.03-2.65,2.66-4.29.63-1.64.95-3.45.95-5.41s-.32-3.78-.95-5.43c-.63-1.66-1.52-3.09-2.66-4.29-1.14-1.2-2.5-2.14-4.07-2.82-1.57-.67-3.28-1.01-5.13-1.01s-3.56.34-5.13,1.01c-1.57.68-2.92,1.61-4.05,2.82-1.13,1.2-2.01,2.63-2.64,4.29-.63,1.66-.95,3.47-.95,5.43s.31,3.77.95,5.41c.63,1.64,1.51,3.07,2.64,4.29,1.13,1.22,2.48,2.16,4.05,2.82,1.57.66,3.28.99,5.13.99Z"/>
          <path class="cls-1" d="M309.76,425.79v-22.88h2.11l.22,5.1h-.31c.32-.97.82-1.88,1.5-2.73.67-.85,1.5-1.54,2.49-2.07.98-.53,2.12-.79,3.41-.79.5,0,.96.04,1.39.11.42.07.81.15,1.17.24l-.66,2.55c-.41-.18-.81-.29-1.19-.35-.38-.06-.72-.09-1.01-.09-1.17,0-2.19.21-3.06.62-.87.41-1.58.98-2.16,1.7-.57.72-1,1.53-1.28,2.44-.28.91-.42,1.86-.42,2.86v13.29h-2.2Z"/>
          <path class="cls-1" d="M334.35,426.23c-2.2,0-4.16-.51-5.87-1.54-1.72-1.03-3.07-2.43-4.05-4.22-.98-1.79-1.47-3.84-1.47-6.16s.49-4.37,1.47-6.16c.98-1.79,2.34-3.19,4.07-4.2,1.73-1.01,3.72-1.52,5.98-1.52,1.88,0,3.59.37,5.13,1.1s2.82,1.76,3.85,3.08l-1.41,1.72c-.65-.79-1.38-1.46-2.2-2-.82-.54-1.7-.96-2.64-1.25-.94-.29-1.91-.44-2.9-.44-1.73,0-3.27.42-4.62,1.25-1.35.84-2.42,1.98-3.21,3.43s-1.19,3.12-1.19,4.99.39,3.55,1.17,5.02,1.84,2.62,3.19,3.45c1.35.84,2.86,1.25,4.53,1.25.97,0,1.92-.15,2.86-.44.94-.29,1.82-.71,2.64-1.25.82-.54,1.57-1.21,2.24-2l1.41,1.72c-1.06,1.32-2.38,2.35-3.98,3.08-1.6.73-3.26,1.1-4.99,1.1Z"/>
          <path class="cls-1" d="M348.34,425.79v-32.56h2.2v14.96l-.53.84c.32-1.38.94-2.56,1.85-3.54.91-.98,1.97-1.74,3.19-2.27,1.22-.53,2.44-.79,3.67-.79,1.76,0,3.22.34,4.38,1.01,1.16.67,2.02,1.72,2.57,3.12s.84,3.2.84,5.37v13.86h-2.2v-13.77c0-1.7-.22-3.1-.66-4.2-.44-1.1-1.11-1.92-2-2.46-.9-.54-2.03-.81-3.41-.81-1.09,0-2.1.2-3.04.59-.94.4-1.75.93-2.44,1.61-.69.68-1.23,1.45-1.63,2.31-.4.87-.59,1.78-.59,2.75v13.99h-2.2Z"/>
          <path class="cls-1" d="M382.79,426.23c-2.08,0-3.95-.51-5.59-1.54-1.64-1.03-2.94-2.43-3.89-4.22s-1.43-3.83-1.43-6.12.49-4.37,1.47-6.16c.98-1.79,2.29-3.2,3.94-4.22,1.64-1.03,3.48-1.54,5.5-1.54,1.17,0,2.29.18,3.34.53,1.06.35,2.01.84,2.86,1.47.85.63,1.58,1.37,2.2,2.22.62.85,1.06,1.78,1.32,2.77l-.88-.57.22-5.94h2.11v22.88h-2.2v-5.72l.75-.84c-.26.97-.7,1.88-1.32,2.73-.62.85-1.35,1.6-2.2,2.24-.85.64-1.8,1.14-2.86,1.5-1.06.35-2.17.53-3.34.53ZM383.1,424.03c1.67,0,3.17-.42,4.51-1.25,1.33-.84,2.39-1.98,3.17-3.43.78-1.45,1.17-3.13,1.17-5.04s-.38-3.54-1.14-4.99-1.81-2.6-3.15-3.43c-1.34-.84-2.85-1.25-4.55-1.25s-3.26.42-4.6,1.25c-1.33.84-2.38,1.98-3.15,3.43s-1.14,3.12-1.14,4.99.37,3.51,1.12,4.97c.75,1.47,1.79,2.63,3.12,3.48,1.33.85,2.88,1.28,4.64,1.28Z"/>
          <path class="cls-1" d="M401.19,425.79v-22.88h2.11l.22,5.1h-.31c.32-.97.82-1.88,1.5-2.73.67-.85,1.5-1.54,2.49-2.07.98-.53,2.12-.79,3.41-.79.5,0,.96.04,1.39.11.42.07.81.15,1.17.24l-.66,2.55c-.41-.18-.81-.29-1.19-.35-.38-.06-.72-.09-1.01-.09-1.17,0-2.19.21-3.06.62-.87.41-1.58.98-2.16,1.7-.57.72-1,1.53-1.28,2.44-.28.91-.42,1.86-.42,2.86v13.29h-2.2Z"/>
          <path class="cls-1" d="M425.56,426.23c-2.08,0-3.95-.51-5.59-1.54-1.64-1.03-2.94-2.43-3.89-4.22s-1.43-3.83-1.43-6.12.49-4.37,1.47-6.16c.98-1.79,2.29-3.2,3.94-4.22,1.64-1.03,3.48-1.54,5.5-1.54,1.17,0,2.29.18,3.34.53,1.06.35,2.01.84,2.86,1.47.85.63,1.58,1.37,2.2,2.22.62.85,1.06,1.78,1.32,2.77l-.75-.75v-15.44h2.2v32.56h-2.11l-.18-5.94.84-.62c-.26.97-.7,1.88-1.32,2.73-.62.85-1.35,1.6-2.2,2.24-.85.64-1.8,1.14-2.86,1.5-1.06.35-2.17.53-3.34.53ZM425.87,424.03c1.67,0,3.17-.42,4.51-1.25,1.33-.84,2.39-1.98,3.17-3.43.78-1.45,1.17-3.13,1.17-5.04s-.38-3.54-1.14-4.99-1.81-2.6-3.15-3.43c-1.34-.84-2.85-1.25-4.55-1.25s-3.26.42-4.6,1.25c-1.33.84-2.38,1.98-3.15,3.43s-1.14,3.12-1.14,4.99.37,3.51,1.12,4.97c.75,1.47,1.79,2.63,3.12,3.48,1.33.85,2.88,1.28,4.64,1.28Z"/>
          <path class="cls-1" d="M458.69,425.79v-30.8h12.14c1.61,0,3.05.33,4.31.99,1.26.66,2.25,1.58,2.97,2.75.72,1.17,1.08,2.51,1.08,4,0,1.7-.51,3.19-1.52,4.47-1.01,1.28-2.35,2.16-4.03,2.66l-.13-.84c1.47.26,2.74.76,3.83,1.5,1.08.73,1.94,1.63,2.55,2.68.62,1.06.92,2.23.92,3.52s-.24,2.53-.7,3.63c-.47,1.1-1.13,2.06-1.98,2.88-.85.82-1.86,1.45-3.01,1.89-1.16.44-2.44.66-3.85.66h-12.58ZM460.89,408.67h9.68c1.23,0,2.32-.25,3.26-.75.94-.5,1.68-1.18,2.22-2.05s.81-1.84.81-2.93c0-1.67-.57-3.05-1.69-4.14-1.13-1.08-2.69-1.63-4.69-1.63h-9.59v11.48ZM460.89,423.59h10.12c1.44,0,2.71-.28,3.83-.84,1.12-.56,1.99-1.33,2.62-2.31.63-.98.95-2.1.95-3.37s-.33-2.27-.99-3.21c-.66-.94-1.56-1.67-2.71-2.2-1.14-.53-2.45-.79-3.92-.79h-9.9v12.71Z"/>
          <path class="cls-1" d="M487.03,425.79v-22.88h2.11l.22,5.1h-.31c.32-.97.82-1.88,1.5-2.73.67-.85,1.5-1.54,2.49-2.07.98-.53,2.12-.79,3.41-.79.5,0,.96.04,1.39.11.42.07.81.15,1.17.24l-.66,2.55c-.41-.18-.81-.29-1.19-.35-.38-.06-.72-.09-1.01-.09-1.17,0-2.19.21-3.06.62-.87.41-1.58.98-2.16,1.7-.57.72-1,1.53-1.28,2.44-.28.91-.42,1.86-.42,2.86v13.29h-2.2Z"/>
          <path class="cls-1" d="M511.58,426.23c-2.2,0-4.16-.5-5.87-1.5-1.72-1-3.06-2.39-4.03-4.18-.97-1.79-1.45-3.87-1.45-6.25,0-1.73.27-3.31.81-4.75s1.3-2.69,2.27-3.76c.97-1.07,2.13-1.9,3.5-2.49,1.36-.59,2.85-.88,4.47-.88s3.01.26,4.29.79c1.28.53,2.35,1.28,3.23,2.27.88.98,1.54,2.14,1.98,3.48.44,1.33.63,2.81.57,4.42l-.04,1.19h-19.45v-2.02h18.26l-.97.79v-1.05c0-1.17-.29-2.35-.86-3.52s-1.45-2.16-2.62-2.95c-1.17-.79-2.66-1.19-4.44-1.19-1.67,0-3.16.37-4.47,1.1-1.31.73-2.33,1.8-3.08,3.21-.75,1.41-1.12,3.15-1.12,5.24s.37,3.73,1.1,5.21c.73,1.48,1.8,2.62,3.19,3.43s3.1,1.21,5.13,1.21c1.08,0,2.2-.18,3.34-.53,1.14-.35,2.43-1.11,3.87-2.29l1.14,1.63c-.65.62-1.41,1.18-2.29,1.7s-1.86.92-2.95,1.23-2.26.46-3.52.46Z"/>
          <path class="cls-1" d="M531.38,425.79l-8.1-22.88h2.55l6.73,19.98-1.19-.09,7.3-16.46h1.32l7.3,16.46-1.41.09,6.95-19.98h2.42l-8.1,22.88h-.84l-7.79-17.91h1.58l-7.79,17.91h-.97Z"/>
        </g>
      </g>
      <g>
        <path d="M150.44,32.56V1.76h4.75v26.22h14.43v4.58h-19.18Z"/>
        <path d="M186.34,33c-2.38,0-4.48-.51-6.31-1.52s-3.27-2.4-4.31-4.16c-1.04-1.76-1.56-3.78-1.56-6.07,0-1.82.29-3.48.88-4.97.59-1.5,1.4-2.79,2.44-3.89,1.04-1.1,2.29-1.95,3.74-2.55,1.45-.6,3.03-.9,4.73-.9,1.5,0,2.89.29,4.18.86,1.29.57,2.41,1.36,3.37,2.35.95,1,1.69,2.18,2.2,3.54.51,1.36.75,2.85.73,4.47l-.04,1.94h-18.88l-1.01-3.61h15.97l-.66.75v-1.06c-.09-.97-.41-1.83-.97-2.6-.56-.76-1.26-1.36-2.11-1.8-.85-.44-1.78-.66-2.77-.66-1.58,0-2.92.3-4,.9s-1.91,1.48-2.46,2.64c-.56,1.16-.84,2.59-.84,4.29,0,1.61.34,3.01,1.01,4.2.67,1.19,1.63,2.1,2.86,2.75,1.23.65,2.65.97,4.27.97,1.14,0,2.21-.19,3.19-.57.98-.38,2.05-1.07,3.19-2.07l2.29,3.21c-.7.7-1.56,1.32-2.57,1.85s-2.08.95-3.21,1.25c-1.13.31-2.24.46-3.32.46Z"/>
        <path d="M217.37,32.56l-7.48-9.72-.66-.84-9.72-12.54h5.72l7.35,9.59.75.97,9.59,12.54h-5.54ZM199.54,32.56l9.11-11.88,2.68,3.21-6.42,8.67h-5.37ZM213.58,21.38l-2.51-3.17,5.68-8.76h5.37l-8.54,11.92Z"/>
        <path d="M236.99,33c-2.38,0-4.48-.51-6.31-1.52s-3.27-2.4-4.31-4.16c-1.04-1.76-1.56-3.78-1.56-6.07,0-1.82.29-3.48.88-4.97.59-1.5,1.4-2.79,2.44-3.89,1.04-1.1,2.29-1.95,3.74-2.55,1.45-.6,3.03-.9,4.73-.9,1.5,0,2.89.29,4.18.86,1.29.57,2.41,1.36,3.37,2.35.95,1,1.69,2.18,2.2,3.54.51,1.36.75,2.85.73,4.47l-.04,1.94h-18.88l-1.01-3.61h15.97l-.66.75v-1.06c-.09-.97-.41-1.83-.97-2.6-.56-.76-1.26-1.36-2.11-1.8-.85-.44-1.78-.66-2.77-.66-1.58,0-2.92.3-4,.9s-1.91,1.48-2.46,2.64c-.56,1.16-.84,2.59-.84,4.29,0,1.61.34,3.01,1.01,4.2.67,1.19,1.63,2.1,2.86,2.75,1.23.65,2.65.97,4.27.97,1.14,0,2.21-.19,3.19-.57.98-.38,2.05-1.07,3.19-2.07l2.29,3.21c-.7.7-1.56,1.32-2.57,1.85s-2.08.95-3.21,1.25c-1.13.31-2.24.46-3.32.46Z"/>
        <path d="M252.79,32.56V9.46h4.53v4.75l-.79.53c.29-1.03.86-1.97,1.72-2.84.85-.87,1.86-1.57,3.04-2.11,1.17-.54,2.38-.81,3.61-.81,1.76,0,3.23.34,4.4,1.03,1.17.69,2.05,1.74,2.64,3.15s.88,3.18.88,5.32v14.08h-4.53v-13.77c0-1.32-.18-2.41-.53-3.28-.35-.87-.9-1.5-1.63-1.89-.73-.4-1.64-.56-2.73-.51-.88,0-1.69.14-2.42.42-.73.28-1.37.67-1.91,1.17-.54.5-.97,1.08-1.28,1.74-.31.66-.46,1.37-.46,2.13v13.99h-4.53Z"/>
        <path d="M289.39,33c-2.11,0-4-.52-5.65-1.56-1.66-1.04-2.97-2.46-3.94-4.27-.97-1.8-1.45-3.86-1.45-6.18s.48-4.38,1.43-6.18c.95-1.8,2.25-3.23,3.89-4.27,1.64-1.04,3.5-1.56,5.59-1.56,1.14,0,2.25.18,3.32.55,1.07.37,2.03.87,2.88,1.5s1.52,1.32,2,2.07c.48.75.73,1.5.73,2.27l-1.32.09V0h4.53v32.56h-4.53v-5.5h.88c0,.7-.24,1.4-.7,2.09-.47.69-1.09,1.33-1.87,1.91s-1.67,1.06-2.68,1.41c-1.01.35-2.05.53-3.1.53ZM290.01,29.08c1.38,0,2.6-.35,3.65-1.06s1.88-1.66,2.49-2.88c.6-1.22.9-2.6.9-4.16s-.3-2.94-.9-4.16c-.6-1.22-1.43-2.18-2.49-2.88s-2.27-1.06-3.65-1.06-2.6.35-3.65,1.06c-1.06.7-1.89,1.67-2.49,2.88-.6,1.22-.9,2.6-.9,4.16s.3,2.94.9,4.16c.6,1.22,1.43,2.18,2.49,2.88,1.06.7,2.27,1.06,3.65,1.06Z"/>
        <path d="M322.7,32.56V1.76h12.06c2.2,0,4.19.37,5.96,1.1,1.77.73,3.29,1.79,4.55,3.17,1.26,1.38,2.23,3.01,2.9,4.88.67,1.88,1.01,3.96,1.01,6.25s-.34,4.38-1.01,6.27c-.68,1.89-1.64,3.52-2.88,4.88s-2.76,2.41-4.55,3.15c-1.79.73-3.78,1.1-5.98,1.1h-12.06ZM327.45,28.47l-.13-.48h7.22c1.55,0,2.94-.25,4.16-.75,1.22-.5,2.24-1.21,3.08-2.13s1.47-2.06,1.91-3.41c.44-1.35.66-2.86.66-4.53s-.22-3.17-.66-4.51-1.09-2.47-1.94-3.41c-.85-.94-1.88-1.66-3.08-2.16-1.2-.5-2.58-.75-4.14-.75h-7.35l.26-.4v22.53Z"/>
        <path d="M366.04,33c-2.38,0-4.48-.51-6.31-1.52-1.83-1.01-3.27-2.4-4.31-4.16s-1.56-3.78-1.56-6.07c0-1.82.29-3.48.88-4.97s1.4-2.79,2.44-3.89c1.04-1.1,2.29-1.95,3.74-2.55,1.45-.6,3.03-.9,4.73-.9,1.5,0,2.89.29,4.18.86,1.29.57,2.41,1.36,3.37,2.35s1.69,2.18,2.2,3.54c.51,1.36.75,2.85.73,4.47l-.04,1.94h-18.88l-1.01-3.61h15.97l-.66.75v-1.06c-.09-.97-.41-1.83-.97-2.6-.56-.76-1.26-1.36-2.11-1.8-.85-.44-1.78-.66-2.77-.66-1.58,0-2.92.3-4,.9-1.09.6-1.91,1.48-2.46,2.64-.56,1.16-.84,2.59-.84,4.29,0,1.61.34,3.01,1.01,4.2.67,1.19,1.63,2.1,2.86,2.75,1.23.65,2.65.97,4.27.97,1.14,0,2.21-.19,3.19-.57.98-.38,2.05-1.07,3.19-2.07l2.29,3.21c-.7.7-1.56,1.32-2.57,1.85-1.01.53-2.08.95-3.21,1.25-1.13.31-2.24.46-3.32.46Z"/>
        <path d="M391.65,33c-2.14,0-4.06-.53-5.74-1.58-1.69-1.06-3.02-2.49-4-4.31-.98-1.82-1.47-3.86-1.47-6.12s.49-4.3,1.47-6.12c.98-1.82,2.32-3.26,4-4.31,1.69-1.06,3.6-1.58,5.74-1.58s3.92.42,5.61,1.25c1.69.84,2.97,1.97,3.85,3.41l-2.51,3.08c-.47-.67-1.07-1.29-1.8-1.85-.73-.56-1.51-1-2.33-1.32-.82-.32-1.61-.48-2.38-.48-1.41,0-2.66.34-3.76,1.03-1.1.69-1.97,1.64-2.62,2.84-.65,1.2-.97,2.55-.97,4.05s.34,2.84,1.01,4.03c.67,1.19,1.57,2.13,2.68,2.84,1.11.7,2.35,1.06,3.7,1.06.79,0,1.56-.13,2.31-.4.75-.26,1.47-.66,2.18-1.19.7-.53,1.36-1.17,1.98-1.94l2.51,3.08c-.94,1.32-2.28,2.41-4.03,3.26-1.75.85-3.56,1.28-5.43,1.28Z"/>
        <path d="M415.05,33c-1.91,0-3.65-.53-5.21-1.58-1.57-1.06-2.82-2.49-3.76-4.31-.94-1.82-1.41-3.87-1.41-6.16s.48-4.38,1.43-6.18c.95-1.8,2.24-3.22,3.87-4.25s3.45-1.54,5.48-1.54c1.2,0,2.3.18,3.3.53,1,.35,1.87.84,2.62,1.47s1.36,1.36,1.85,2.18c.48.82.79,1.7.9,2.64l-1.01-.35v-5.98h4.58v23.1h-4.58v-5.5l1.06-.31c-.18.79-.54,1.56-1.08,2.31s-1.23,1.42-2.07,2-1.76,1.06-2.77,1.41c-1.01.35-2.08.53-3.19.53ZM416.24,28.82c1.38,0,2.6-.34,3.65-1.01,1.06-.67,1.88-1.61,2.49-2.79.6-1.19.9-2.54.9-4.07s-.3-2.83-.9-4c-.6-1.17-1.43-2.1-2.49-2.77-1.06-.67-2.27-1.01-3.65-1.01s-2.54.34-3.59,1.01c-1.04.68-1.86,1.6-2.46,2.77-.6,1.17-.9,2.51-.9,4s.3,2.88.9,4.07c.6,1.19,1.42,2.12,2.46,2.79,1.04.67,2.24,1.01,3.59,1.01Z"/>
      </g>
    </g>
  </g>
</svg>